<svg width="100.000000pt" height="104.000000pt" viewBox="0 0 100.000000 104.000000" xmlns="http://www.w3.org/2000/svg">
  <g transform="translate(0.000000,104.000000) scale(0.100000,-0.100000)" fill="#fefefe" stroke="none">
    <path d="M0 520 l0 -520 500 0 500 0 0 520 0 520 -500 0 -500 0 0 -520z m590
451 l55 -18 -85 1 -85 0 -63 -28 -62 -29 -73 -77 -73 -77 -22 -67 -22 -66 0
-83 0 -83 16 -49 17 -48 46 -45 c56 -53 125 -90 186 -99 l46 -6 64 18 65 17
45 40 c25 22 57 60 72 86 l27 45 4 82 4 82 -12 39 c-19 56 -53 97 -103 122
l-44 22 -54 0 -54 0 -40 -19 c-47 -22 -89 -64 -104 -104 -6 -16 -11 -61 -11
-100 l0 -72 -10 15 c-5 8 -10 36 -10 63 l0 47 -15 0 -15 0 -6 -26 c-4 -15 -7
-53 -8 -85 -1 -33 -4 -59 -8 -59 -12 0 -28 64 -28 114 0 56 16 126 29 126 4 0
16 18 26 40 22 49 108 132 161 156 l39 17 90 1 90 1 57 -29 c64 -31 125 -92
159 -158 l23 -43 4 -102 4 -101 -17 -54 c-22 -67 -59 -134 -99 -177 -48 -51
-137 -108 -207 -131 l-64 -22 -85 4 -85 5 -70 29 -70 29 -61 60 c-66 65 -102
127 -129 220 l-18 59 5 90 5 91 28 65 c50 120 137 212 232 247 95 36 122 42
188 42 l70 0 55 -18z m-32 -298 c-10 -2 -28 -2 -40 0 l-23 4 40 0 c22 1 32 -1
23 -4z m-168 -37 c0 -3 -5 -8 -12 -12 l-11 -7 7 11 c7 12 16 16 16 8z m65 -86
c14 0 28 -37 15 -42 -4 -2 -11 -18 -15 -35 l-7 -33 9 0 c5 0 7 -16 5 -35 l-4
-35 23 0 24 0 -14 -9 -14 -9 6 -16 6 -16 30 0 c16 0 42 5 58 10 l28 10 -25
-20 c-29 -23 -82 -40 -126 -40 -17 0 -55 12 -84 27 l-54 28 -25 35 -26 35 49
-43 50 -43 25 3 26 3 2 20 3 20 -32 20 c-17 11 -38 31 -47 45 l-16 24 13 -8
c7 -4 21 -4 32 -1 l20 6 -1 48 c-2 51 7 88 25 110 l11 14 8 -37 9 -36 13 0z
m92 44 c-3 -3 -12 -4 -19 -1 l-13 5 19 1 c11 1 17 -2 13 -5z m140 -101 c-3
-10 -5 -2 -5 17 0 19 2 27 5 18 2 -10 2 -26 0 -35z m-150 10 c-4 -3 -7 0 -7 7
0 7 3 10 7 7 3 -4 3 -10 0 -14z" />
  </g>
  <g transform="translate(0.000000,104.000000) scale(0.100000,-0.100000)" fill="#ecedf5" stroke="none">
    <path d="M374 988 c-3 -4 -10 -5 -17 -2 -7 2 -34 -6 -59 -20 -25 -13 -49 -22
-52 -19 -12 12 -136 -91 -136 -113 0 -6 -6 -14 -13 -17 -7 -2 -20 -20 -29 -38
-47 -98 -59 -130 -53 -139 3 -5 3 -15 -1 -21 -10 -16 -11 -200 -1 -206 4 -2 5
-8 2 -13 -3 -5 1 -20 10 -33 8 -13 12 -26 9 -30 -4 -3 3 -18 15 -33 11 -15 21
-34 21 -44 0 -26 11 -31 28 -13 l16 15 -13 32 c-8 17 -23 56 -34 86 l-20 55 0
85 0 85 21 57 c24 65 62 125 117 181 l36 37 66 30 c36 16 91 35 122 41 l58 12
19 -8 c10 -4 43 -9 72 -11 l52 -3 0 9 c0 6 -4 10 -10 10 -5 0 -18 7 -29 16
l-19 17 -87 1 c-48 0 -89 -2 -91 -6z" />
    <path d="M630 956 c0 -20 13 -27 30 -15 l15 9 -15 10 c-21 14 -30 12 -30 -4z" />
    <path d="M383 918 c-21 -10 -32 -28 -18 -28 10 0 65 30 65 35 0 8 -23 4 -47
-7z" />
    <path d="M505 870 l-6 -10 15 0 c9 0 16 5 16 10 0 6 -4 10 -9 10 -6 0 -13 -4
-16 -10z" />
    <path d="M610 870 c0 -5 12 -10 26 -10 l25 0 -6 10 c-3 6 -15 10 -26 10 -10 0
-19 -4 -19 -10z" />
    <path d="M296 851 c-10 -11 -16 -25 -14 -31 l3 -11 30 31 29 30 -16 0 c-8 0
-23 -9 -32 -19z" />
    <path d="M455 860 l-6 -10 15 0 c9 0 16 5 16 10 0 6 -4 10 -9 10 -6 0 -13 -4
-16 -10z" />
    <path d="M670 860 c0 -5 7 -10 16 -10 l15 0 -6 10 c-3 6 -10 10 -16 10 -5 0
-9 -4 -9 -10z" />
    <path d="M390 830 l-25 -20 18 0 c9 0 17 5 17 10 0 6 7 10 15 10 8 0 15 5 15
10 0 15 -12 12 -40 -10z" />
    <path d="M730 830 c0 -5 9 -10 20 -10 11 0 20 -4 20 -10 0 -5 8 -10 18 -10
l17 0 -25 20 c-27 21 -50 26 -50 10z" />
    <path d="M230 775 c0 -8 -4 -15 -10 -15 -5 0 -10 -7 -10 -16 l0 -17 25 27 c14
15 25 29 25 32 0 2 -7 4 -15 4 -8 0 -15 -7 -15 -15z" />
    <path d="M510 750 c0 -5 11 -10 25 -10 14 0 25 5 25 10 0 6 -11 10 -25 10 -14
0 -25 -4 -25 -10z" />
    <path d="M840 745 c0 -8 4 -15 9 -15 5 0 12 -11 15 -25 4 -14 11 -25 16 -25 6
0 10 3 10 6 0 9 -41 74 -46 74 -2 0 -4 -7 -4 -15z" />
    <path d="M296 741 c-4 -7 -5 -15 -2 -18 9 -9 19 4 14 18 l-4 13 -8 -13z" />
    <path d="M448 738 c-16 -5 -28 -13 -28 -18 0 -4 -8 -10 -19 -13 -23 -6 -51
-60 -44 -87 7 -27 25 -21 30 9 l3 23 -17 -7 -18 -6 30 32 c17 17 49 40 73 51
23 10 42 21 42 23 0 7 -22 4 -52 -7z" />
    <path d="M585 740 c3 -5 10 -10 16 -10 5 0 9 5 9 10 0 6 -7 10 -16 10 l-15 0
6 -10z" />
    <path d="M634 715 c22 -17 36 -19 36 -6 0 10 -24 21 -43 21 -7 0 -3 -7 7 -15z" />
    <path d="M190 704 l0 -15 10 6 c6 3 10 10 10 16 0 5 -4 9 -10 9 -5 0 -10 -7
-10 -16z" />
    <path d="M485 680 l-6 -10 15 0 c9 0 16 5 16 10 0 6 -4 10 -9 10 -6 0 -13 -4
-16 -10z" />
    <path d="M560 680 c0 -13 49 -44 57 -37 3 4 -5 15 -18 26 -27 23 -39 26 -39
11z" />
    <path d="M690 672 c0 -5 7 -16 16 -23 l16 -13 -3 18 c-4 20 -29 35 -29 18z" />
    <path d="M170 654 l0 -15 10 6 c6 3 10 10 10 16 0 5 -4 9 -10 9 -5 0 -10 -7
-10 -16z" />
    <path d="M433 636 c-16 -34 -13 -66 7 -66 l10 0 -5 23 -6 23 15 13 c9 8 16 20
16 27 0 26 -20 14 -37 -20z" />
    <path d="M864 648 c4 -12 10 -52 13 -86 l6 -64 -13 -71 c-7 -40 -17 -76 -22
-82 -4 -5 -8 -16 -8 -25 0 -23 -107 -132 -166 -170 -27 -17 -80 -40 -117 -52
l-68 -20 -65 7 -65 7 -79 39 -79 40 -34 39 c-19 22 -39 40 -44 40 -6 0 -13 -9
-16 -21 l-6 -21 56 -54 56 -54 22 0 c12 0 34 -9 49 -21 14 -11 38 -22 53 -24
16 -2 29 -4 31 -5 6 -4 181 -2 188 2 5 2 29 10 54 17 65 19 87 31 127 68 19
19 50 45 69 59 l34 26 0 19 c0 11 4 19 10 19 13 0 32 39 36 73 2 15 9 38 16
50 l12 22 1 105 c1 58 -1 110 -4 115 -3 6 -6 17 -6 25 l0 15 -24 3 -24 4 7
-24z" />
    <path d="M236 641 c-4 -7 -5 -15 -2 -18 9 -9 19 4 14 18 l-4 13 -8 -13z" />
    <path d="M160 614 l0 -15 10 6 c6 3 10 10 10 16 0 5 -4 9 -10 9 -5 0 -10 -7
-10 -16z" />
    <path d="M630 620 c0 -5 9 -15 19 -22 10 -6 17 -17 14 -24 -2 -6 0 -15 6 -19
15 -8 14 -68 -1 -83 -17 -17 -2 -28 17 -12 l15 12 0 39 c0 21 -4 40 -10 44 -5
3 -7 12 -4 20 3 7 -4 23 -15 34 -22 22 -41 27 -41 11z" />
    <path d="M720 626 c0 -14 21 -58 26 -54 8 8 -7 58 -17 58 -5 0 -9 -2 -9 -4z" />
    <path d="M330 604 l0 -15 10 6 c6 3 10 10 10 16 0 5 -4 9 -10 9 -5 0 -10 -7
-10 -16z" />
    <path d="M396 611 c-4 -7 -5 -15 -2 -18 9 -9 19 4 14 18 l-4 13 -8 -13z" />
    <path d="M225 597 c-4 -10 -5 -21 -1 -24 10 -10 18 4 13 24 l-4 18 -8 -18z" />
    <path d="M505 600 l-6 -10 15 0 c9 0 16 5 16 10 0 6 -4 10 -9 10 -6 0 -13 -4
-16 -10z" />
    <path d="M542 598 c3 -7 15 -19 29 -25 13 -7 23 -19 21 -27 -4 -20 15 -29 22
-11 9 23 -3 43 -37 60 -37 18 -40 18 -35 3z" />
    <path d="M474 574 c3 -9 6 -18 6 -21 0 -3 7 0 15 7 l16 13 -13 8 c-21 13 -31
10 -24 -7z" />
    <path d="M320 560 c0 -11 5 -20 10 -20 6 0 10 9 10 20 0 11 -4 20 -10 20 -5 0
-10 -9 -10 -20z" />
    <path d="M150 530 l0 -40 10 0 10 0 0 40 0 40 -10 0 -10 0 0 -40z" />
    <path d="M373 524 c-3 -8 -1 -20 6 -27 l11 -11 0 27 c0 30 -7 35 -17 11z" />
    <path d="M320 510 c0 -11 -5 -20 -11 -20 -6 0 -9 -6 -6 -12 2 -7 10 -12 16
-10 6 1 11 -5 11 -13 0 -8 8 -15 17 -15 l17 0 -12 12 c-7 7 -12 27 -12 45 0
18 -4 33 -10 33 -5 0 -10 -9 -10 -20z" />
    <path d="M460 505 l0 -16 20 11 c11 6 20 13 20 15 0 3 -9 5 -20 5 l-20 0 0
-15z" />
    <path d="M740 495 l0 -25 15 0 15 0 0 25 0 25 -15 0 -15 0 0 -25z" />
    <path d="M522 498 c-5 -7 -13 -23 -16 -35 l-7 -23 9 0 c13 0 28 20 36 48 l7
22 -9 0 c-5 0 -14 -6 -20 -12z" />
    <path d="M587 468 c-8 -19 -32 -49 -53 -66 l-39 -32 18 0 c9 0 17 4 17 9 0 5
9 11 21 14 11 3 23 15 26 26 3 11 9 18 14 15 5 -3 14 7 19 22 l11 27 -10 10
-10 10 -14 -35z" />
    <path d="M220 466 c0 -8 5 -18 10 -21 l10 -6 0 20 c0 12 -4 21 -10 21 -5 0
-10 -6 -10 -14z" />
    <path d="M376 465 l-5 -15 14 0 c8 0 15 7 15 15 0 8 -4 15 -9 15 -5 0 -11 -7
-15 -15z" />
    <path d="M440 455 c0 -8 5 -15 10 -15 6 0 10 -9 10 -19 0 -11 -4 -23 -10 -26
-15 -10 -12 -35 5 -35 8 0 15 -7 15 -15 0 -8 6 -15 14 -15 l15 0 -4 22 c-3 12
-8 24 -12 27 -10 8 -10 37 0 47 4 4 7 14 7 22 l0 14 -16 -6 -15 -6 6 10 c3 6
-1 10 -9 10 -9 0 -16 -7 -16 -15z" />
    <path d="M164 430 c3 -14 6 -28 6 -32 0 -5 5 -8 11 -8 l10 0 -6 23 c-4 12 -12
27 -17 32 l-11 10 7 -25z" />
    <path d="M260 436 c0 -9 5 -16 10 -16 6 0 10 4 10 9 0 6 -4 13 -10 16 l-10 6
0 -15z" />
    <path d="M736 441 c-4 -7 -5 -15 -2 -18 9 -9 19 4 14 18 l-4 13 -8 -13z" />
    <path d="M270 400 c-7 -4 -9 -13 -6 -19 4 -6 12 -8 18 -5 l11 7 -8 -12 -7 -12
23 -25 c26 -28 44 -32 35 -8 l-6 17 14 -13 c9 -6 20 -10 26 -8 5 1 -12 22 -38
45 l-49 41 -13 -8z" />
    <path d="M630 384 c-17 -43 -11 -50 15 -19 14 17 25 33 25 38 0 4 -7 7 -15 7
-9 0 -20 -12 -25 -26z" />
    <path d="M363 383 c9 -9 19 -14 23 -11 10 10 -6 28 -24 28 l-16 0 17 -17z" />
    <path d="M707 367 c-20 -30 -21 -37 -7 -37 6 0 10 6 10 14 0 8 5 16 12 18 6 2
9 10 7 17 l-5 14 -17 -26z" />
    <path d="M406 355 c4 -8 10 -15 15 -15 5 0 9 7 9 15 0 8 -7 15 -15 15 l-14 0
5 -15z" />
    <path d="M200 346 c0 -9 5 -16 10 -16 6 0 10 4 10 9 0 6 -4 13 -10 16 l-10 6
0 -15z" />
    <path d="M563 340 c-28 -12 -30 -24 -3 -17 11 3 20 2 20 -3 0 -4 -11 -11 -25
-14 -14 -4 -25 -11 -25 -16 0 -14 9 -12 46 11 l33 20 -6 15 c-6 16 -9 16 -40
4z" />
    <path d="M655 300 l-18 -20 17 0 c9 0 19 7 23 15 9 25 -2 27 -22 5z" />
    <path d="M405 280 c3 -5 10 -10 16 -10 5 0 9 5 9 10 0 6 -7 10 -16 10 l-15 0
6 -10z" />
    <path d="M490 280 c0 -5 4 -10 9 -10 6 0 13 5 16 10 l6 10 -15 0 c-9 0 -16 -4
-16 -10z" />
    <path d="M300 251 c0 -11 59 -36 66 -28 3 3 -8 13 -25 21 -35 18 -41 19 -41 7z" />
    <path d="M595 250 l-6 -10 15 0 c9 0 16 5 16 10 0 6 -4 10 -9 10 -6 0 -13 -4
-16 -10z" />
    <path d="M541 229 c-13 -5 -22 -12 -19 -15 8 -8 58 7 58 17 0 11 -8 11 -39 -2z" />
    <path d="M400 210 c0 -5 7 -10 16 -10 l15 0 -6 10 c-3 6 -10 10 -16 10 -5 0
-9 -4 -9 -10z" />
    <path d="M485 210 l-6 -10 15 0 c9 0 16 5 16 10 0 6 -4 10 -9 10 -6 0 -13 -4
-16 -10z" />
  </g>
  <g transform="translate(0.000000,104.000000) scale(0.100000,-0.100000)" fill="#dfe0ee" stroke="none">
    <path d="M380 990 c-8 -5 -12 -12 -9 -15 8 -8 39 5 39 16 0 11 -11 11 -30 -1z" />
    <path d="M522 989 c2 -7 10 -15 17 -17 l14 -4 -5 13 c-2 7 -10 15 -17 17 l-13
5 4 -14z" />
    <path d="M569 988 c0 -1 -2 -11 -4 -20 l-3 -18 13 0 c7 0 20 -3 29 -6 l16 -6
0 11 c0 6 -7 11 -15 11 -8 0 -14 5 -12 11 1 6 -4 14 -10 16 -7 3 -13 3 -14 1z" />
    <path d="M318 973 c-10 -2 -18 -9 -18 -14 l0 -10 23 6 c12 4 26 11 32 16 l9 9
-14 -1 c-8 -1 -23 -3 -32 -6z" />
    <path d="M370 955 c-25 -7 -70 -24 -101 -38 -90 -41 -172 -136 -211 -245 l-20
-57 -3 -71 -4 -71 14 -62 c8 -34 24 -79 35 -101 24 -47 25 -57 5 -40 -26 22
-29 2 -4 -28 13 -16 30 -38 37 -48 l12 -19 -6 35 -6 35 37 -42 36 -43 82 -40
82 -40 71 -6 72 -7 68 21 c88 27 152 68 227 145 l60 62 -28 -42 c-15 -23 -25
-48 -22 -55 l4 -13 14 30 c7 17 18 33 23 37 6 4 10 23 9 42 -1 20 3 39 8 42
l9 5 -6 -15 -6 -16 10 0 11 0 -1 48 c0 26 4 95 8 154 5 58 6 104 2 101 -12 -6
-10 15 3 39 l11 20 -20 21 c-12 12 -26 36 -33 52 l-11 30 -10 -27 -10 -28 20
-53 c11 -29 23 -78 27 -109 l7 -57 -17 -78 c-16 -72 -59 -173 -78 -181 -4 -2
-13 -9 -20 -15 -35 -34 -138 -97 -182 -112 l-50 -17 -65 0 -66 0 -73 29 -74
28 -61 54 -61 55 -13 35 c-8 20 -23 60 -34 90 l-19 54 0 76 0 76 21 60 c35
101 93 175 177 224 29 16 76 37 104 46 l53 15 6 -10 6 -10 35 11 c19 6 41 13
49 15 l14 5 -14 9 c-21 13 -86 11 -140 -5z" />
    <path d="M170 890 c0 -5 4 -10 9 -10 6 0 13 5 16 10 l6 10 -15 0 c-9 0 -16 -4
-16 -10z" />
    <path d="M320 870 c0 -5 4 -10 9 -10 6 0 13 5 16 10 l6 10 -15 0 c-9 0 -16 -4
-16 -10z" />
    <path d="M515 870 l-6 -10 30 0 c17 0 31 5 31 10 0 6 -11 10 -24 10 -14 0 -28
-4 -31 -10z" />
    <path d="M590 870 c0 -5 9 -10 21 -10 l20 0 -6 10 c-3 6 -13 10 -21 10 -8 0
-14 -4 -14 -10z" />
    <path d="M270 814 l0 -15 10 6 c6 3 10 10 10 16 0 5 -4 9 -10 9 -5 0 -10 -7
-10 -16z" />
    <path d="M780 800 c0 -5 7 -10 16 -10 l15 0 -6 10 c-3 6 -10 10 -16 10 -5 0
-9 -4 -9 -10z" />
    <path d="M80 784 l0 -15 10 6 c6 3 10 10 10 16 0 5 -4 9 -10 9 -5 0 -10 -7
-10 -16z" />
    <path d="M220 764 l0 -15 10 6 c6 3 10 10 10 16 0 5 -4 9 -10 9 -5 0 -10 -7
-10 -16z" />
    <path d="M306 751 c-4 -7 -5 -15 -2 -18 9 -9 19 4 14 18 l-4 13 -8 -13z" />
    <path d="M500 750 c0 -5 4 -10 9 -10 6 0 13 5 16 10 l6 10 -15 0 c-9 0 -16 -4
-16 -10z" />
    <path d="M545 750 c3 -5 10 -10 16 -10 5 0 9 5 9 10 0 6 -7 10 -16 10 l-15 0
6 -10z" />
    <path d="M460 740 c0 -5 4 -10 9 -10 6 0 13 5 16 10 l6 10 -15 0 c-9 0 -16 -4
-16 -10z" />
    <path d="M615 730 c3 -5 10 -10 16 -10 5 0 9 5 9 10 0 6 -7 10 -16 10 l-15 0
6 -10z" />
    <path d="M36 711 c-4 -7 -5 -15 -2 -18 9 -9 19 4 14 18 l-4 13 -8 -13z" />
    <path d="M180 684 l0 -15 10 6 c6 3 10 10 10 16 0 5 -4 9 -10 9 -5 0 -10 -7
-10 -16z" />
    <path d="M533 683 c-13 -2 -23 -9 -23 -14 l0 -10 33 3 c17 2 31 7 30 13 -2 12
-11 13 -40 8z" />
    <path d="M360 665 c0 -8 -4 -15 -10 -15 -5 0 -10 -6 -10 -13 0 -8 6 -14 14
-14 8 0 12 6 9 13 -2 6 0 15 6 19 14 8 14 25 1 25 -5 0 -10 -7 -10 -15z" />
    <path d="M465 671 c-7 -12 12 -24 25 -16 11 7 4 25 -10 25 -5 0 -11 -4 -15 -9z" />
    <path d="M254 662 c-6 -4 -14 -17 -18 -29 l-7 -23 10 0 c6 0 11 6 11 14 0 8 5
16 12 18 6 2 9 9 7 16 l-4 11 -11 -7z" />
    <path d="M600 660 c0 -5 7 -10 16 -10 l15 0 -6 10 c-3 6 -10 10 -16 10 -5 0
-9 -4 -9 -10z" />
    <path d="M16 651 c-4 -7 -5 -15 -2 -18 9 -9 19 4 14 18 l-4 13 -8 -13z" />
    <path d="M380 632 c0 -10 6 -19 14 -19 l13 0 -5 19 c-2 10 -8 18 -13 18 -5 0
-9 -8 -9 -18z" />
    <path d="M160 624 l0 -15 10 6 c6 3 10 10 10 16 0 5 -4 9 -10 9 -5 0 -10 -7
-10 -16z" />
    <path d="M10 604 l0 -15 10 6 c6 3 10 10 10 16 0 5 -4 9 -10 9 -5 0 -10 -7
-10 -16z" />
    <path d="M226 581 c-4 -7 -5 -15 -2 -18 9 -9 19 4 14 18 l-4 13 -8 -13z" />
    <path d="M320 549 l0 -40 9 5 c11 7 10 76 -1 76 -4 0 -8 -18 -8 -41z" />
    <path d="M386 581 c-4 -7 -5 -15 -2 -18 9 -9 19 4 14 18 l-4 13 -8 -13z" />
    <path d="M478 568 c-22 -27 -23 -48 -3 -48 l14 0 -5 14 -5 14 22 21 23 21 -15
0 c-8 0 -22 -10 -31 -22z" />
    <path d="M150 564 l0 -15 10 6 c6 3 10 10 10 16 0 5 -4 9 -10 9 -5 0 -10 -7
-10 -16z" />
    <path d="M270 554 l0 -15 10 6 c6 3 10 10 10 16 0 5 -4 9 -10 9 -5 0 -10 -7
-10 -16z" />
    <path d="M900 556 c0 -8 5 -18 10 -21 l10 -6 0 20 c0 12 -4 21 -10 21 -5 0
-10 -6 -10 -14z" />
    <path d="M592 549 c2 -7 10 -15 17 -17 l14 -4 -5 13 c-2 7 -10 15 -17 17 l-13
5 4 -14z" />
    <path d="M680 514 l0 -15 10 6 c6 4 8 11 5 16 -9 14 -15 11 -15 -7z" />
    <path d="M150 491 c0 -12 5 -21 10 -21 6 0 10 6 10 14 0 8 -4 18 -10 21 l-10
6 0 -20z" />
    <path d="M260 484 l0 -15 10 6 c6 3 10 10 10 16 0 5 -4 9 -10 9 -5 0 -10 -7
-10 -16z" />
    <path d="M905 487 c-4 -10 -5 -21 -1 -24 10 -10 18 4 13 24 l-4 18 -8 -18z" />
    <path d="M380 481 c0 -6 5 -13 10 -16 l10 -6 0 15 c0 9 -4 16 -10 16 -5 0 -10
-4 -10 -9z" />
    <path d="M460 474 l0 -15 10 6 c6 3 10 10 10 16 0 5 -4 9 -10 9 -5 0 -10 -7
-10 -16z" />
    <path d="M753 483 c-18 -7 -16 -23 2 -23 8 0 15 7 15 15 0 8 -1 15 -2 14 -2 0
-9 -3 -15 -6z" />
    <path d="M670 444 l0 -15 10 6 c6 3 10 10 10 16 0 5 -4 9 -10 9 -5 0 -10 -7
-10 -16z" />
    <path d="M10 436 c0 -9 5 -16 10 -16 6 0 10 4 10 9 0 6 -4 13 -10 16 l-10 6 0
-15z" />
    <path d="M578 444 c-5 -4 -8 -16 -8 -28 l0 -20 11 11 c6 6 9 19 7 28 -1 9 -6
13 -10 9z" />
    <path d="M230 431 c0 -6 5 -13 10 -16 l10 -6 0 15 c0 9 -4 16 -10 16 -5 0 -10
-4 -10 -9z" />
    <path d="M730 416 c-12 -33 -12 -36 -1 -36 10 0 25 50 17 58 -3 2 -10 -7 -16
-22z" />
    <path d="M330 421 c0 -12 29 -35 36 -28 4 3 -1 13 -9 22 -17 17 -27 19 -27 6z" />
    <path d="M22 376 c2 -16 9 -31 17 -34 l13 -4 -7 23 c-4 13 -12 29 -17 34 l-10
10 4 -29z" />
    <path d="M525 391 c-7 -12 12 -24 25 -16 11 7 4 25 -10 25 -5 0 -11 -4 -15 -9z" />
    <path d="M885 379 c-4 -6 -5 -13 -2 -16 7 -7 27 6 27 18 0 12 -17 12 -25 -2z" />
    <path d="M385 370 c3 -5 10 -10 16 -10 5 0 9 5 9 10 0 6 -7 10 -16 10 l-15 0
6 -10z" />
    <path d="M476 371 c-7 -11 22 -23 36 -15 l10 7 -13 8 c-18 11 -26 11 -33 0z" />
    <path d="M706 361 c-4 -7 -5 -15 -2 -18 9 -9 19 4 14 18 l-4 13 -8 -13z" />
    <path d="M410 345 c-7 -8 -19 -15 -26 -15 -8 0 -14 -4 -14 -10 0 -5 7 -10 15
-10 8 0 15 5 15 10 0 6 7 10 15 10 8 0 15 7 15 15 0 8 -2 15 -4 15 -2 0 -9 -7
-16 -15z" />
    <path d="M600 345 c-7 -9 -10 -18 -7 -22 8 -7 37 15 37 28 0 14 -16 11 -30 -6z" />
    <path d="M480 330 c0 -5 7 -10 16 -10 l15 0 -6 10 c-3 6 -10 10 -16 10 -5 0
-9 -4 -9 -10z" />
    <path d="M676 321 c-4 -7 -5 -15 -2 -18 9 -9 19 4 14 18 l-4 13 -8 -13z" />
    <path d="M40 311 c0 -6 5 -13 10 -16 l10 -6 0 15 c0 9 -4 16 -10 16 -5 0 -10
-4 -10 -9z" />
    <path d="M230 309 c0 -14 30 -38 49 -39 l13 0 -12 16 c-8 8 -22 20 -32 25
l-18 10 0 -12z" />
    <path d="M375 290 c3 -5 10 -10 16 -10 5 0 9 5 9 10 0 6 -7 10 -16 10 l-15 0
6 -10z" />
    <path d="M480 280 c0 -5 4 -10 9 -10 6 0 13 5 16 10 l6 10 -15 0 c-9 0 -16 -4
-16 -10z" />
    <path d="M629 274 l-13 -16 18 3 c11 2 21 10 24 17 5 17 -13 15 -29 -4z" />
    <path d="M360 220 c0 -5 7 -10 16 -10 l15 0 -6 10 c-3 6 -10 10 -16 10 -5 0
-9 -4 -9 -10z" />
    <path d="M535 220 l-6 -10 15 0 c9 0 16 5 16 10 0 6 -4 10 -9 10 -6 0 -13 -4
-16 -10z" />
    <path d="M495 210 l-6 -10 15 0 c9 0 16 5 16 10 0 6 -4 10 -9 10 -6 0 -13 -4
-16 -10z" />
    <path d="M165 140 c3 -5 15 -10 26 -10 l20 0 -6 10 c-3 6 -15 10 -26 10 l-20
0 6 -10z" />
    <path d="M691 128 l-34 -22 13 -4 c8 -3 16 0 18 7 2 6 9 11 16 11 7 0 21 7 32
15 l19 14 -15 1 c-8 0 -30 -10 -49 -22z" />
    <path d="M250 102 c0 -11 41 -34 48 -27 4 4 -2 13 -12 21 -22 15 -36 18 -36 6z" />
    <path d="M593 76 c-13 -6 -23 -14 -23 -18 0 -10 3 -10 34 2 14 5 26 14 26 20
0 12 -7 11 -37 -4z" />
    <path d="M360 61 c0 -11 31 -24 39 -16 3 3 -1 10 -9 15 -19 12 -30 12 -30 1z" />
    <path d="M450 50 c0 -5 7 -10 15 -10 8 0 15 5 15 10 0 6 -7 10 -15 10 -8 0
-15 -4 -15 -10z" />
  </g>
  <g transform="translate(0.000000,104.000000) scale(0.100000,-0.100000)" fill="#8f90ca" stroke="none">
    <path d="M520 857 l0 -14 38 -11 c52 -16 125 -72 153 -119 13 -21 26 -40 31
-43 17 -13 38 -97 38 -155 l0 -63 -20 5 -20 5 0 -16 c0 -9 7 -16 15 -16 18 0
18 -2 3 -37 -14 -29 -15 -31 -74 -100 l-36 -43 -62 -30 -63 -31 -49 -1 c-61
-1 -118 15 -163 44 -19 13 -42 28 -50 33 -24 15 -61 54 -61 64 0 5 -6 12 -12
14 l-13 5 17 1 17 1 -6 16 -6 15 -14 -5 -15 -6 7 32 7 31 -15 -6 -15 -6 -6 31
c-18 89 6 184 68 282 20 31 36 61 36 66 0 20 -25 9 -53 -22 -43 -50 -74 -117
-87 -189 l-12 -64 6 -50 c4 -27 16 -76 27 -107 l21 -58 38 -43 38 -43 68 -35
68 -34 101 0 100 0 53 29 c64 36 148 124 175 185 l20 46 5 78 5 77 -13 48 c-7
26 -19 59 -26 74 -20 40 -92 115 -142 148 l-45 30 -39 0 -38 0 0 -13z" />
    <path d="M448 748 c-16 -5 -28 -16 -28 -23 l0 -14 40 17 c61 26 50 43 -12 20z" />
    <path d="M570 750 c0 -5 6 -10 13 -10 6 0 24 -7 40 -14 l27 -15 0 14 c0 7 -14
18 -31 24 -39 14 -49 14 -49 1z" />
    <path d="M300 735 l-12 -15 16 0 c9 0 16 7 16 15 0 8 -2 15 -4 15 -2 0 -9 -7
-16 -15z" />
    <path d="M373 695 c-7 -8 -13 -19 -13 -25 0 -5 -4 -10 -9 -10 -5 0 -15 -15
-22 -34 l-13 -35 -23 -6 -23 -5 0 -17 0 -17 11 11 c6 6 18 9 25 6 l14 -5 0 16
c0 9 4 16 9 16 5 0 13 10 16 23 4 12 20 39 36 60 l30 37 -13 0 c-7 -1 -19 -7
-25 -15z" />
    <path d="M266 685 l-5 -15 14 0 c8 0 15 7 15 15 0 8 -4 15 -9 15 -5 0 -11 -7
-15 -15z" />
    <path d="M475 673 c-38 -21 -85 -70 -85 -90 l0 -15 16 6 c9 3 20 6 25 6 4 0 6
7 3 15 l-6 14 28 26 c15 14 33 25 40 25 8 0 14 7 14 15 0 8 -1 15 -2 15 -2 -1
-16 -8 -33 -17z" />
    <path d="M550 680 c0 -11 82 -51 89 -44 8 8 -40 42 -66 47 -13 2 -23 1 -23 -3z" />
    <path d="M690 676 c0 -2 7 -9 15 -16 l15 -12 0 16 c0 9 -7 16 -15 16 -8 0 -15
-2 -15 -4z" />
    <path d="M240 635 c0 -8 7 -15 15 -15 8 0 15 7 15 15 0 8 -7 15 -15 15 -8 0
-15 -7 -15 -15z" />
    <path d="M646 605 c4 -8 10 -15 15 -15 5 0 9 7 9 15 0 8 -7 15 -15 15 l-14 0
5 -15z" />
    <path d="M230 595 c0 -8 5 -15 10 -15 6 0 10 7 10 15 0 8 -4 15 -10 15 -5 0
-10 -7 -10 -15z" />
    <path d="M510 603 c-20 -7 -50 -39 -50 -53 0 -16 14 -12 28 10 l12 20 35 0
c36 0 47 13 19 24 -18 7 -23 7 -44 -1z" />
    <path d="M596 545 c4 -8 10 -15 15 -15 4 0 6 7 3 15 -4 8 -10 15 -15 15 -4 0
-6 -7 -3 -15z" />
    <path d="M740 545 c0 -8 7 -15 15 -15 8 0 15 7 15 15 0 8 -7 15 -15 15 -8 0
-15 -7 -15 -15z" />
    <path d="M380 520 c0 -16 5 -30 10 -30 6 0 10 14 10 30 0 17 -4 30 -10 30 -5
0 -10 -13 -10 -30z" />
    <path d="M670 505 l0 -46 -20 -39 -20 -40 14 0 14 0 16 40 c9 22 16 61 16 85
l0 45 -10 0 -10 0 0 -45z" />
    <path d="M470 520 c0 -5 11 -10 25 -10 l25 0 0 -15 c0 -8 5 -15 10 -15 11 0
13 11 4 34 l-6 16 -29 0 c-16 0 -29 -4 -29 -10z" />
    <path d="M260 505 c0 -8 5 -15 10 -15 6 0 10 7 10 15 0 8 -4 15 -10 15 -5 0
-10 -7 -10 -15z" />
    <path d="M590 466 c-13 -40 -45 -72 -87 -86 l-31 -11 -39 10 c-22 6 -48 20
-58 31 -10 11 -24 20 -31 20 l-13 0 5 -13 c7 -20 85 -67 111 -67 l23 0 0 -15
c0 -8 7 -15 16 -15 l16 0 -11 13 -10 13 40 18 40 18 24 36 c12 21 26 47 30 60
l6 22 -10 0 c-5 0 -14 -15 -21 -34z" />
    <path d="M243 473 c-7 -2 -13 -11 -13 -19 l0 -14 20 0 20 0 0 20 c0 20 -5 23
-27 13z" />
    <path d="M320 465 c0 -8 5 -15 10 -15 6 0 10 7 10 15 0 8 -4 15 -10 15 -5 0
-10 -7 -10 -15z" />
    <path d="M440 443 l0 -13 29 0 c16 0 34 7 41 15 l12 15 -41 -3 -41 -2 0 -12z" />
    <path d="M730 405 c0 -8 5 -15 10 -15 6 0 10 7 10 15 0 8 -4 15 -10 15 -5 0
-10 -7 -10 -15z" />
    <path d="M290 372 c0 -11 7 -25 15 -32 l15 -12 0 20 c0 11 -7 25 -15 32 l-15
12 0 -20z" />
    <path d="M593 346 c-10 -13 -35 -29 -56 -37 -38 -13 -49 -29 -22 -29 25 0 67
25 99 59 l30 31 -16 0 c-9 0 -25 -11 -35 -24z" />
    <path d="M360 302 c0 -11 49 -26 58 -17 8 7 0 12 -31 20 l-27 7 0 -10z" />
  </g>
  <g transform="translate(0.000000,104.000000) scale(0.100000,-0.100000)" fill="#9fa0d2" stroke="none">
    <path d="M580 867 c0 -2 22 -18 48 -35 52 -34 125 -109 146 -150 7 -15 19 -48
26 -75 l13 -47 -5 -68 -5 -67 -20 -46 c-27 -61 -111 -149 -175 -185 l-53 -29
-90 0 -91 0 -67 34 -68 34 -35 39 c-42 46 -72 112 -85 187 l-10 53 11 67 11
66 28 50 c15 28 32 49 39 48 l11 -3 -6 17 -6 16 15 -6 16 -6 6 15 6 15 -12 -7
-11 -7 7 12 c4 6 11 9 16 6 11 -7 60 34 60 51 0 18 -10 18 -48 -2 -42 -20 -96
-85 -130 -154 l-27 -55 0 -115 0 -115 24 -55 c13 -30 44 -76 69 -102 l45 -47
66 -33 66 -33 95 0 95 0 55 26 55 26 62 62 62 63 22 56 22 57 0 95 0 95 -22
56 -21 55 -71 72 -71 72 -34 0 c-19 0 -34 -1 -34 -3z" />
    <path d="M390 825 l-12 -15 16 0 c9 0 16 7 16 15 0 8 -2 15 -4 15 -2 0 -9 -7
-16 -15z" />
    <path d="M340 785 l-12 -15 16 0 c9 0 16 7 16 15 0 8 -2 15 -4 15 -2 0 -9 -7
-16 -15z" />
    <path d="M276 705 l-5 -15 14 0 c8 0 15 7 15 15 0 8 -4 15 -9 15 -5 0 -11 -7
-15 -15z" />
    <path d="M650 716 c0 -2 7 -9 15 -16 l15 -12 0 16 c0 9 -7 16 -15 16 -8 0 -15
-2 -15 -4z" />
    <path d="M180 694 l0 -15 10 6 c6 3 10 10 10 16 0 5 -4 9 -10 9 -5 0 -10 -7
-10 -16z" />
    <path d="M370 690 c0 -5 5 -10 10 -10 6 0 10 5 10 10 0 6 -4 10 -10 10 -5 0
-10 -4 -10 -10z" />
    <path d="M260 665 c0 -8 5 -15 10 -15 6 0 10 7 10 15 0 8 -4 15 -10 15 -5 0
-10 -7 -10 -15z" />
    <path d="M480 668 c0 -5 -4 -6 -10 -3 -5 3 -10 1 -10 -5 0 -6 -4 -9 -9 -5 -10
6 -26 -13 -18 -21 5 -6 76 28 77 37 0 3 -7 6 -15 6 -8 0 -15 -4 -15 -9z" />
    <path d="M576 671 c-3 -5 1 -11 9 -15 15 -6 29 7 18 18 -9 9 -21 8 -27 -3z" />
    <path d="M617 653 c-8 -7 21 -43 35 -43 17 0 7 18 -13 23 l-21 6 7 10 c7 12 2
15 -8 4z" />
    <path d="M360 620 c0 -5 5 -10 10 -10 6 0 10 5 10 10 0 6 -4 10 -10 10 -5 0
-10 -4 -10 -10z" />
    <path d="M230 611 c0 -6 5 -13 10 -16 l10 -6 0 15 c0 9 -4 16 -10 16 -5 0 -10
-4 -10 -9z" />
    <path d="M730 605 c0 -8 5 -15 10 -15 6 0 10 7 10 15 0 8 -4 15 -10 15 -5 0
-10 -7 -10 -15z" />
    <path d="M150 595 c0 -8 5 -15 10 -15 6 0 10 7 10 15 0 8 -4 15 -10 15 -5 0
-10 -7 -10 -15z" />
    <path d="M482 588 c-15 -15 -16 -28 -2 -28 6 0 10 7 10 16 l0 16 16 -6 15 -6
-6 10 c-8 13 -18 13 -33 -2z" />
    <path d="M664 565 l11 -34 8 8 c12 12 -3 61 -18 61 l-12 0 11 -35z" />
    <path d="M578 568 c12 -12 24 -19 28 -15 10 10 -16 37 -34 37 l-16 0 22 -22z" />
    <path d="M380 551 c0 -6 5 -13 10 -16 l10 -6 0 15 c0 9 -4 16 -10 16 -5 0 -10
-4 -10 -9z" />
    <path d="M456 517 c-9 -33 -7 -37 10 -37 l15 0 -6 10 c-4 6 -2 17 4 24 l12 14
-15 5 -14 6 -6 -22z" />
    <path d="M600 516 c0 -14 5 -28 10 -31 l10 -6 0 30 c0 17 -4 31 -10 31 -5 0
-10 -11 -10 -24z" />
    <path d="M386 501 c-4 -7 -5 -15 -2 -18 9 -9 19 4 14 18 l-4 13 -8 -13z" />
    <path d="M505 472 c-16 -16 -34 -30 -40 -31 -17 -4 -19 -11 -4 -11 23 0 79 39
79 55 0 8 -1 15 -2 15 -2 0 -16 -13 -33 -28z" />
    <path d="M670 491 c0 -6 4 -13 10 -16 l10 -6 -6 15 c-7 18 -14 21 -14 7z" />
    <path d="M310 465 c0 -8 5 -15 10 -15 6 0 10 7 10 15 0 8 -4 15 -10 15 -5 0
-10 -7 -10 -15z" />
    <path d="M150 455 c0 -8 5 -15 10 -15 6 0 10 7 10 15 0 8 -4 15 -10 15 -5 0
-10 -7 -10 -15z" />
    <path d="M237 453 c-12 -19 3 -42 66 -107 l61 -61 4 20 4 19 -23 19 c-55 42
-93 83 -101 108 l-4 13 -7 -11z" />
    <path d="M595 452 c-10 -7 -18 -32 -10 -32 2 0 9 9 15 20 12 22 11 24 -5 12z" />
    <path d="M325 430 c3 -5 10 -10 16 -10 5 0 9 5 9 10 0 6 -7 10 -16 10 l-15 0
6 -10z" />
    <path d="M646 415 l-5 -15 13 0 c7 0 13 7 13 15 0 8 -4 15 -8 15 -4 0 -9 -7
-13 -15z" />
    <path d="M450 405 c0 -8 5 -15 10 -15 6 0 10 7 10 15 0 8 -4 15 -10 15 -5 0
-10 -7 -10 -15z" />
    <path d="M556 411 c-4 -5 -2 -12 3 -15 5 -4 12 -2 15 3 4 5 2 12 -3 15 -5 4
-12 2 -15 -3z" />
    <path d="M523 375 c0 -8 4 -12 9 -9 4 3 8 9 8 15 0 5 -4 9 -8 9 -5 0 -9 -7 -9
-15z" />
    <path d="M625 379 c-4 -6 -5 -13 -2 -16 7 -7 27 6 27 18 0 12 -17 12 -25 -2z" />
    <path d="M444 371 c4 -6 2 -11 -4 -11 -6 0 -23 -11 -38 -25 l-27 -25 16 0 c8
0 25 9 37 20 12 12 22 16 22 10 0 -14 19 -12 36 4 16 17 19 30 4 21 -5 -3 -19
-1 -31 6 l-21 11 6 -11z" />
    <path d="M716 371 c-4 -7 -5 -15 -2 -18 9 -9 19 4 14 18 l-4 13 -8 -13z" />
    <path d="M573 341 c-18 -8 -33 -18 -33 -22 0 -4 9 -9 20 -12 l19 -5 16 25 c9
14 15 26 13 27 -2 1 -18 -5 -35 -13z" />
    <path d="M200 335 c0 -8 7 -15 16 -15 l16 0 -12 15 c-7 8 -14 15 -16 15 -2 0
-4 -7 -4 -15z" />
    <path d="M290 255 c0 -8 7 -15 16 -15 l16 0 -12 15 c-7 8 -14 15 -16 15 -2 0
-4 -7 -4 -15z" />
    <path d="M610 255 l-12 -15 16 0 c9 0 16 7 16 15 0 8 -2 15 -4 15 -2 0 -9 -7
-16 -15z" />
    <path d="M510 210 c0 -5 7 -10 15 -10 8 0 15 5 15 10 0 6 -7 10 -15 10 -8 0
-15 -4 -15 -10z" />
  </g>
  <g transform="translate(0.000000,104.000000) scale(0.100000,-0.100000)" fill="#d3d4e8" stroke="none">
    <path d="M510 990 c0 -5 7 -10 16 -10 l15 0 -6 10 c-3 6 -10 10 -16 10 -5 0
-9 -4 -9 -10z" />
    <path d="M331 979 c-13 -5 -22 -12 -19 -15 8 -8 58 7 58 17 0 11 -8 11 -39 -2z" />
    <path d="M600 970 c0 -5 7 -10 16 -10 l15 0 -6 10 c-3 6 -10 10 -16 10 -5 0
-9 -4 -9 -10z" />
    <path d="M388 943 c-70 -14 -158 -57 -203 -98 -52 -48 -92 -112 -115 -181
l-22 -65 0 -82 0 -82 20 -55 c11 -30 26 -71 34 -91 l13 -35 61 -55 61 -54 74
-29 74 -28 75 0 75 0 50 17 c28 10 77 36 110 59 61 41 121 95 123 109 1 4 8
20 16 35 7 15 22 62 31 106 l18 78 -7 65 c-4 36 -16 88 -26 116 -11 29 -20 54
-20 57 0 3 9 -6 20 -20 l20 -25 0 18 c0 9 -4 17 -10 17 -5 0 -10 6 -10 13 0
16 -52 67 -68 67 -7 0 -12 -3 -12 -6 0 -3 16 -38 35 -78 20 -39 40 -99 46
-134 l11 -62 -11 -62 c-10 -57 -48 -167 -62 -178 -3 -3 -11 -15 -18 -27 -6
-13 -18 -23 -26 -23 -7 0 -15 -3 -17 -7 -8 -18 -117 -83 -166 -99 l-53 -17
-72 5 -72 5 -62 30 c-70 33 -152 105 -178 155 -9 18 -25 57 -36 87 l-19 54 0
71 c0 160 81 300 212 366 33 17 94 38 136 47 42 9 81 20 86 24 l9 8 -32 -2
c-18 -1 -60 -7 -93 -14z" />
    <path d="M210 920 c0 -5 4 -10 9 -10 6 0 13 5 16 10 l6 10 -15 0 c-9 0 -16 -4
-16 -10z" />
    <path d="M534 868 c-3 -4 13 -8 36 -8 l41 0 -6 10 c-7 12 -64 10 -71 -2z" />
    <path d="M465 860 l-6 -10 15 0 c9 0 16 5 16 10 0 6 -4 10 -9 10 -6 0 -13 -4
-16 -10z" />
    <path d="M690 851 c0 -10 24 -21 43 -21 7 0 3 7 -7 15 -22 17 -36 19 -36 6z" />
    <path d="M110 824 l0 -15 10 6 c6 3 10 10 10 16 0 5 -4 9 -10 9 -5 0 -10 -7
-10 -16z" />
    <path d="M400 830 c0 -5 5 -10 10 -10 6 0 10 5 10 10 0 6 -4 10 -10 10 -5 0
-10 -4 -10 -10z" />
    <path d="M260 804 l0 -15 10 6 c6 3 10 10 10 16 0 5 -4 9 -10 9 -5 0 -10 -7
-10 -16z" />
    <path d="M365 810 l-6 -10 15 0 c9 0 16 5 16 10 0 6 -4 10 -9 10 -6 0 -13 -4
-16 -10z" />
    <path d="M316 761 c-4 -7 -5 -15 -2 -18 9 -9 19 4 14 18 l-4 13 -8 -13z" />
    <path d="M555 750 c3 -5 10 -10 16 -10 5 0 9 5 9 10 0 6 -7 10 -16 10 l-15 0
6 -10z" />
    <path d="M285 721 c-3 -5 -1 -12 5 -16 l10 -6 0 15 c0 18 -6 21 -15 7z" />
    <path d="M400 710 c0 -5 4 -10 9 -10 6 0 13 5 16 10 l6 10 -15 0 c-9 0 -16 -4
-16 -10z" />
    <path d="M26 684 c-3 -9 -6 -23 -6 -32 l0 -16 9 10 c5 5 12 19 16 32 l6 22 -9
0 c-6 0 -13 -7 -16 -16z" />
    <path d="M500 674 l0 -13 27 3 c15 2 29 8 31 14 l3 11 -30 -1 -31 -1 0 -13z" />
    <path d="M583 673 c4 -3 10 -3 14 0 3 4 0 7 -7 7 -7 0 -10 -3 -7 -7z" />
    <path d="M460 650 c0 -7 3 -10 7 -7 3 4 3 10 0 14 -4 3 -7 0 -7 -7z" />
    <path d="M880 656 c0 -16 24 -66 32 -66 l10 0 -7 18 c-4 9 -10 25 -12 35 -3 9
-9 17 -14 17 -5 0 -9 -2 -9 -4z" />
    <path d="M405 621 c-7 -12 12 -24 25 -16 11 7 4 25 -10 25 -5 0 -11 -4 -15 -9z" />
    <path d="M650 621 c0 -5 5 -13 10 -16 6 -3 10 -2 10 4 0 5 -4 13 -10 16 -5 3
-10 2 -10 -4z" />
    <path d="M520 595 c0 -8 6 -15 13 -15 8 0 14 7 14 15 0 8 -6 15 -14 15 -7 0
-13 -7 -13 -15z" />
    <path d="M735 601 c-3 -5 -1 -12 5 -16 l10 -6 0 15 c0 18 -6 21 -15 7z" />
    <path d="M6 591 c-4 -7 -5 -15 -2 -18 9 -9 19 4 14 18 l-4 13 -8 -13z" />
    <path d="M320 584 l0 -15 10 6 c6 3 10 10 10 16 0 5 -4 9 -10 9 -5 0 -10 -7
-10 -16z" />
    <path d="M560 590 c0 -5 7 -10 16 -10 l15 0 -6 10 c-3 6 -10 10 -16 10 -5 0
-9 -4 -9 -10z" />
    <path d="M530 516 c0 -8 -3 -21 -6 -30 l-6 -16 12 0 c6 0 9 4 5 9 -3 5 -1 12
5 16 13 8 13 35 0 35 -5 0 -10 -6 -10 -14z" />
    <path d="M740 521 c0 -5 7 -11 15 -15 l15 -5 0 14 c0 8 -7 15 -15 15 -8 0 -15
-4 -15 -9z" />
    <path d="M300 491 c0 -13 26 -32 33 -24 8 7 -11 33 -24 33 -5 0 -9 -4 -9 -9z" />
    <path d="M610 490 c0 -7 3 -10 7 -7 3 4 3 10 0 14 -4 3 -7 0 -7 -7z" />
    <path d="M220 481 c0 -6 5 -13 10 -16 l10 -6 0 15 c0 9 -4 16 -10 16 -5 0 -10
-4 -10 -9z" />
    <path d="M457 483 c-10 -9 -9 -23 2 -23 5 0 11 7 15 15 5 15 -5 20 -17 8z" />
    <path d="M590 470 c0 -5 5 -10 11 -10 5 0 7 5 4 10 -3 6 -8 10 -11 10 -2 0 -4
-4 -4 -10z" />
    <path d="M906 471 c-4 -7 -5 -15 -2 -18 9 -9 19 4 14 18 l-4 13 -8 -13z" />
    <path d="M666 461 c-4 -7 -5 -15 -2 -18 9 -9 19 4 14 18 l-4 13 -8 -13z" />
    <path d="M480 451 c0 -6 -7 -11 -15 -11 -8 0 -15 -7 -15 -15 0 -20 6 -19 30 5
l19 19 -9 6 c-6 4 -10 1 -10 -4z" />
    <path d="M10 426 c0 -9 5 -16 10 -16 6 0 10 4 10 9 0 6 -4 13 -10 16 l-10 6 0
-15z" />
    <path d="M653 423 c4 -3 10 -3 14 0 3 4 0 7 -7 7 -7 0 -10 -3 -7 -7z" />
    <path d="M896 414 c-9 -22 3 -32 14 -14 12 19 12 30 1 30 -5 0 -12 -7 -15 -16z" />
    <path d="M250 410 l-15 -10 18 0 c9 0 17 5 17 10 0 12 -1 12 -20 0z" />
    <path d="M344 408 l-7 -11 11 7 c7 4 12 9 12 12 0 8 -9 4 -16 -8z" />
    <path d="M559 393 l-14 -18 18 14 c9 7 17 15 17 17 0 8 -8 3 -21 -13z" />
    <path d="M180 374 l0 -15 10 6 c6 4 8 11 5 16 -9 14 -15 11 -15 -7z" />
    <path d="M640 379 c0 -5 5 -7 10 -4 6 3 10 8 10 11 0 2 -4 4 -10 4 -5 0 -10
-5 -10 -11z" />
    <path d="M490 370 c0 -5 5 -10 10 -10 6 0 10 5 10 10 0 6 -4 10 -10 10 -5 0
-10 -4 -10 -10z" />
    <path d="M875 349 c-4 -6 -5 -13 -2 -16 7 -7 27 6 27 18 0 12 -17 12 -25 -2z" />
    <path d="M335 340 c-3 -5 -1 -10 4 -10 6 0 11 5 11 10 0 6 -2 10 -4 10 -3 0
-8 -4 -11 -10z" />
    <path d="M560 330 c0 -5 5 -10 11 -10 5 0 7 5 4 10 -3 6 -8 10 -11 10 -2 0 -4
-4 -4 -10z" />
    <path d="M686 331 c-4 -7 -5 -15 -2 -18 9 -9 19 4 14 18 l-4 13 -8 -13z" />
    <path d="M220 316 c0 -9 5 -16 10 -16 6 0 10 4 10 9 0 6 -4 13 -10 16 l-10 6
0 -15z" />
    <path d="M347 323 c-27 -7 -11 -21 18 -16 13 3 22 9 19 14 -5 9 -8 10 -37 2z" />
    <path d="M500 320 c0 -5 9 -10 20 -10 11 0 20 5 20 10 0 6 -9 10 -20 10 -11 0
-20 -4 -20 -10z" />
    <path d="M50 313 c0 -19 11 -43 21 -43 13 0 11 14 -6 36 -8 10 -15 14 -15 7z" />
    <path d="M520 290 c0 -5 5 -10 10 -10 6 0 10 5 10 10 0 6 -4 10 -10 10 -5 0
-10 -4 -10 -10z" />
    <path d="M415 280 c3 -5 13 -10 21 -10 8 0 14 5 14 10 0 6 -9 10 -21 10 l-20
0 6 -10z" />
    <path d="M470 280 c0 -5 4 -10 9 -10 6 0 13 5 16 10 l6 10 -15 0 c-9 0 -16 -4
-16 -10z" />
    <path d="M270 270 c0 -5 7 -10 16 -10 l15 0 -6 10 c-3 6 -10 10 -16 10 -5 0
-9 -4 -9 -10z" />
    <path d="M830 244 l0 -15 10 6 c6 3 10 10 10 16 0 5 -4 9 -10 9 -5 0 -10 -7
-10 -16z" />
    <path d="M80 241 c0 -6 5 -13 10 -16 l10 -6 0 15 c0 9 -4 16 -10 16 -5 0 -10
-4 -10 -9z" />
    <path d="M765 180 l-18 -20 17 0 c9 0 19 7 23 15 9 25 -2 27 -22 5z" />
    <path d="M155 150 c3 -5 10 -10 16 -10 5 0 9 5 9 10 0 6 -7 10 -16 10 l-15 0
6 -10z" />
    <path d="M190 130 c0 -5 5 -10 11 -10 7 0 18 -8 25 -17 l12 -18 9 8 8 8 -25
19 c-28 22 -40 25 -40 10z" />
    <path d="M660 100 c0 -5 4 -10 9 -10 6 0 13 5 16 10 l6 10 -15 0 c-9 0 -16 -4
-16 -10z" />
    <path d="M290 80 c0 -5 7 -10 16 -10 l15 0 -6 10 c-3 6 -10 10 -16 10 -5 0 -9
-4 -9 -10z" />
    <path d="M620 80 c0 -5 4 -10 9 -10 6 0 13 5 16 10 l6 10 -15 0 c-9 0 -16 -4
-16 -10z" />
    <path d="M335 60 c3 -5 15 -10 26 -10 l20 0 -6 10 c-3 6 -15 10 -26 10 l-20 0
6 -10z" />
    <path d="M538 63 c-10 -2 -18 -9 -18 -15 l0 -10 16 6 c9 3 20 6 25 6 5 0 9 5
9 10 0 10 -3 11 -32 3z" />
    <path d="M430 49 c0 -5 16 -9 35 -9 19 0 35 4 35 9 0 5 -16 9 -35 9 -19 0 -35
-4 -35 -9z" />
  </g>
  <g transform="translate(0.000000,104.000000) scale(0.100000,-0.100000)" fill="#8082c4" stroke="none">
    <path d="M487 863 c-4 -3 -7 -12 -7 -20 l0 -13 23 0 c34 -1 101 -34 145 -75
44 -39 86 -102 72 -107 l-9 -3 9 -15 10 -15 9 14 9 14 7 -33 7 -32 -13 -9 -14
-8 20 -15 19 -14 -11 -65 -11 -65 -28 -32 c-16 -17 -29 -35 -29 -38 0 -12 -88
-91 -96 -87 -4 3 -13 -1 -21 -8 -19 -19 -75 -37 -118 -37 -40 0 -101 18 -111
32 -3 5 -12 10 -20 12 -23 3 -72 37 -102 70 -16 17 -31 43 -34 58 -3 15 -9 28
-13 28 -4 0 -13 28 -19 63 l-12 62 10 50 c5 28 14 63 20 78 6 16 11 36 11 45
l0 16 -10 -10 c-5 -5 -19 -36 -30 -68 l-20 -59 0 -59 0 -58 21 -62 c12 -35 26
-64 30 -66 5 -2 9 -8 9 -13 0 -10 37 -49 61 -64 8 -5 31 -20 50 -33 47 -31
103 -46 172 -45 l59 1 63 31 63 31 36 43 c20 23 42 50 50 59 8 9 22 37 30 63
l16 46 0 68 0 68 -15 44 c-9 24 -19 46 -23 49 -5 3 -18 22 -31 43 -28 46 -101
103 -152 119 -21 6 -36 15 -33 19 6 10 -40 12 -49 2z" />
    <path d="M510 760 c0 -5 7 -10 15 -10 8 0 15 5 15 10 0 6 -7 10 -15 10 -8 0
-15 -4 -15 -10z" />
    <path d="M206 751 c-4 -7 -5 -15 -2 -18 9 -9 19 4 14 18 l-4 13 -8 -13z" />
    <path d="M316 751 c-4 -7 -5 -15 -2 -18 9 -9 19 4 14 18 l-4 13 -8 -13z" />
    <path d="M430 741 c0 -17 18 -21 24 -6 l5 15 -14 0 c-8 0 -15 -4 -15 -9z" />
    <path d="M395 719 c-4 -6 -5 -12 -2 -15 7 -7 37 7 37 17 0 13 -27 11 -35 -2z" />
    <path d="M640 720 c0 -5 7 -10 15 -10 8 0 15 5 15 10 0 6 -7 10 -15 10 -8 0
-15 -4 -15 -10z" />
    <path d="M507 683 c-14 -13 -6 -18 28 -18 l35 0 -17 13 c-19 13 -36 16 -46 5z" />
    <path d="M340 661 c-5 -11 -10 -25 -10 -32 l0 -13 20 22 c11 12 20 26 20 32 0
17 -19 11 -30 -9z" />
    <path d="M480 670 c0 -7 3 -10 7 -7 3 4 3 10 0 14 -4 3 -7 0 -7 -7z" />
    <path d="M460 660 c0 -7 3 -10 7 -7 3 4 3 10 0 14 -4 3 -7 0 -7 -7z" />
    <path d="M427 642 c-10 -10 -17 -24 -17 -30 0 -7 -5 -12 -12 -12 -6 0 -8 -3
-5 -7 4 -3 2 -12 -4 -20 l-11 -13 16 0 c9 0 16 4 16 9 0 5 10 7 23 4 l22 -4
-17 13 -17 14 15 29 c8 15 13 30 11 32 -2 2 -11 -5 -20 -15z" />
    <path d="M372 637 l-13 -15 11 -7 c15 -9 23 -1 18 21 l-3 17 -13 -16z" />
    <path d="M625 641 c-3 -6 4 -15 15 -21 11 -6 18 -15 15 -21 -4 -5 -1 -9 5 -9
6 0 9 -4 5 -9 -6 -11 13 -26 22 -17 6 5 -43 86 -52 86 -2 0 -6 -4 -10 -9z" />
    <path d="M522 597 l-12 -14 32 -1 c18 0 34 -6 36 -11 2 -6 11 -11 19 -11 l16
0 -23 20 c-12 11 -27 17 -32 14 -6 -4 -14 -1 -18 5 l-7 12 -11 -14z" />
    <path d="M236 591 c-4 -7 -5 -15 -2 -18 9 -9 19 4 14 18 l-4 13 -8 -13z" />
    <path d="M280 580 c0 -5 4 -10 9 -10 6 0 13 5 16 10 l6 10 -15 0 c-9 0 -16 -4
-16 -10z" />
    <path d="M462 568 c-14 -14 -16 -54 -3 -62 5 -3 15 2 22 11 l14 17 -13 -8 -12
-7 3 18 c1 10 6 24 10 31 l8 12 -8 0 c-5 0 -14 -5 -21 -12z" />
    <path d="M300 536 c0 -19 3 -41 6 -50 12 -32 24 -15 24 34 l0 50 -15 0 -15 0
0 -34z" />
    <path d="M260 514 l0 -15 10 6 c6 3 10 10 10 16 0 5 -4 9 -10 9 -5 0 -10 -7
-10 -16z" />
    <path d="M519 512 l10 -18 -25 -27 c-25 -27 -54 -36 -54 -17 0 6 -4 10 -10 10
-5 0 -10 -7 -10 -15 0 -14 14 -20 35 -15 6 1 15 3 21 3 15 0 65 77 58 88 -3 5
-12 9 -20 9 l-15 0 10 -18z" />
    <path d="M230 472 c0 -4 5 -13 12 -20 l12 -12 -14 0 -15 -1 17 -13 c10 -7 22
-25 27 -39 6 -15 15 -27 21 -27 l11 0 -6 23 c-17 54 -65 120 -65 89z" />
    <path d="M669 459 l-11 -21 13 4 c7 2 13 12 15 21 3 23 -3 21 -17 -4z" />
    <path d="M317 444 c2 -7 12 -15 21 -19 l17 -6 3 10 c2 6 10 11 18 11 8 0 14 4
14 9 0 4 -18 8 -39 8 l-39 0 5 -13z" />
    <path d="M663 423 c4 -3 10 -3 14 0 3 4 0 7 -7 7 -7 0 -10 -3 -7 -7z" />
    <path d="M648 403 c7 -3 16 -2 19 1 4 3 -2 6 -13 5 l-19 -1 13 -5z" />
    <path d="M376 385 c4 -8 10 -12 15 -9 14 8 10 24 -6 24 l-14 0 5 -15z" />
    <path d="M421 387 l-11 -14 20 -23 19 -22 16 6 c23 8 18 26 -7 26 l-22 0 12
12 c7 7 12 16 12 20 0 13 -27 9 -39 -5z" />
    <path d="M523 383 c4 -3 10 -3 14 0 3 4 0 7 -7 7 -7 0 -10 -3 -7 -7z" />
    <path d="M624 376 c-10 -8 -17 -17 -14 -19 3 -3 14 1 24 9 11 7 17 16 15 19
-3 3 -14 -2 -25 -9z" />
    <path d="M497 373 c-4 -3 -7 -11 -7 -17 l0 -10 12 12 c6 6 9 14 7 17 -3 3 -9
2 -12 -2z" />
    <path d="M330 321 c0 -6 7 -11 15 -11 8 0 15 -4 15 -10 0 -5 3 -9 8 -9 4 1 9
1 12 -1 22 -8 50 -8 50 0 0 6 -6 10 -14 10 -8 0 -16 4 -18 10 -1 5 -18 12 -35
16 l-33 7 0 -12z" />
    <path d="M523 314 c-3 -8 -11 -14 -19 -14 -8 0 -14 -4 -14 -10 0 -13 37 -7 52
8 7 7 18 12 25 12 7 0 13 4 13 9 0 14 -51 10 -57 -5z" />
  </g>
  <g transform="translate(0.000000,104.000000) scale(0.100000,-0.100000)" fill="#aeaed8" stroke="none">
    <path d="M350 904 c0 -17 22 -14 28 4 2 7 -3 12 -12 12 -9 0 -16 -7 -16 -16z" />
    <path d="M280 875 c-19 -13 -40 -24 -47 -24 -20 -1 -95 -94 -120 -149 -14 -29
-29 -84 -35 -122 l-10 -69 11 -61 c14 -84 54 -167 104 -218 l42 -43 65 -32 65
-32 105 0 105 0 56 26 57 27 59 58 60 59 23 60 24 60 0 105 0 105 -23 57 c-12
32 -37 72 -54 90 l-32 31 3 20 4 20 -21 -6 -21 -5 -8 13 c-4 7 -23 16 -42 19
l-35 7 25 -21 c14 -11 51 -46 82 -76 l57 -56 22 -56 21 -57 1 -85 0 -85 -22
-57 -22 -56 -62 -63 -62 -62 -55 -26 -55 -25 -85 -1 -85 0 -66 33 -66 33 -45
47 c-25 26 -56 72 -69 102 l-24 55 0 105 0 105 28 56 c15 31 46 78 69 104 l41
47 19 -5 c10 -3 21 0 25 5 l6 11 -13 -8 -13 -8 7 12 c4 6 12 9 17 5 13 -7 49
24 49 43 0 19 -20 15 -60 -12z" />
    <path d="M341 785 c-13 -14 -18 -25 -11 -25 15 0 42 28 38 40 -2 5 -14 -2 -27
-15z" />
    <path d="M466 751 l-20 -8 11 -6 c7 -4 14 -3 18 2 3 6 12 8 20 4 l15 -5 0 11
c0 12 -16 13 -44 2z" />
    <path d="M290 720 c0 -5 5 -10 10 -10 6 0 10 5 10 10 0 6 -4 10 -10 10 -5 0
-10 -4 -10 -10z" />
    <path d="M670 701 c0 -12 29 -35 36 -28 4 3 -1 13 -9 22 -17 17 -27 19 -27 6z" />
    <path d="M574 668 l-7 -11 11 7 c12 7 16 16 8 16 -3 0 -8 -5 -12 -12z" />
    <path d="M422 638 c-15 -15 -15 -28 0 -28 6 0 8 3 5 7 -4 3 -2 12 4 20 14 16
7 17 -9 1z" />
    <path d="M626 641 c-4 -5 -2 -12 3 -15 5 -4 12 -2 15 3 4 5 2 12 -3 15 -5 4
-12 2 -15 -3z" />
    <path d="M363 623 c4 -3 10 -3 14 0 3 4 0 7 -7 7 -7 0 -10 -3 -7 -7z" />
    <path d="M550 590 l-15 -10 12 0 c6 0 15 5 18 10 8 12 4 12 -15 0z" />
    <path d="M513 583 c4 -3 10 -3 14 0 3 4 0 7 -7 7 -7 0 -10 -3 -7 -7z" />
    <path d="M434 564 c3 -9 6 -18 6 -20 0 -2 7 -4 15 -4 l15 0 -12 20 c-15 24
-33 27 -24 4z" />
    <path d="M464 568 l-7 -11 11 7 c7 4 12 9 12 12 0 8 -9 4 -16 -8z" />
    <path d="M680 570 c0 -7 3 -10 7 -7 3 4 3 10 0 14 -4 3 -7 0 -7 -7z" />
    <path d="M380 561 c0 -6 5 -13 10 -16 l10 -6 0 15 c0 9 -4 16 -10 16 -5 0 -10
-4 -10 -9z" />
    <path d="M670 540 c0 -7 3 -10 7 -7 3 4 3 10 0 14 -4 3 -7 0 -7 -7z" />
    <path d="M753 543 c-18 -7 -16 -23 2 -23 8 0 15 7 15 15 0 8 -1 15 -2 14 -2 0
-9 -3 -15 -6z" />
    <path d="M300 515 l1 -30 10 18 11 19 -11 11 -11 11 0 -29z" />
    <path d="M604 529 c-3 -6 -1 -16 5 -22 l11 -11 0 22 c0 24 -5 28 -16 11z" />
    <path d="M483 523 c4 -3 10 -3 14 0 3 4 0 7 -7 7 -7 0 -10 -3 -7 -7z" />
    <path d="M520 526 c0 -2 7 -7 16 -10 l15 -6 -6 10 c-6 10 -25 14 -25 6z" />
    <path d="M670 500 c0 -7 3 -10 7 -7 3 4 3 10 0 14 -4 3 -7 0 -7 -7z" />
    <path d="M504 468 l-7 -11 11 7 c7 4 12 9 12 12 0 8 -9 4 -16 -8z" />
    <path d="M595 460 c3 -5 8 -10 11 -10 2 0 4 5 4 10 0 6 -5 10 -11 10 -5 0 -7
-4 -4 -10z" />
    <path d="M740 461 c0 -5 7 -11 15 -15 l15 -5 0 14 c0 8 -7 15 -15 15 -8 0 -15
-4 -15 -9z" />
    <path d="M343 435 c0 -8 6 -15 14 -15 7 0 13 7 13 15 0 8 -6 15 -13 15 -8 0
-14 -7 -14 -15z" />
    <path d="M585 440 c3 -5 8 -10 11 -10 3 0 2 5 -1 10 -3 6 -8 10 -11 10 -3 0
-2 -4 1 -10z" />
    <path d="M450 394 l0 -15 10 6 c6 4 8 11 5 16 -9 14 -15 11 -15 -7z" />
    <path d="M726 391 c-4 -7 -5 -15 -2 -18 9 -9 19 4 14 18 l-4 13 -8 -13z" />
    <path d="M276 368 c3 -4 9 -8 15 -8 5 0 9 4 9 8 0 5 -7 9 -15 9 -8 0 -12 -4
-9 -9z" />
    <path d="M400 369 c0 -5 5 -7 10 -4 6 3 10 8 10 11 0 2 -4 4 -10 4 -5 0 -10
-5 -10 -11z" />
    <path d="M690 330 c0 -5 5 -10 10 -10 6 0 10 5 10 10 0 6 -4 10 -10 10 -5 0
-10 -4 -10 -10z" />
    <path d="M350 320 c0 -5 5 -10 10 -10 6 0 10 5 10 10 0 6 -4 10 -10 10 -5 0
-10 -4 -10 -10z" />
    <path d="M490 320 c0 -5 7 -10 16 -10 l15 0 -6 10 c-3 6 -10 10 -16 10 -5 0
-9 -4 -9 -10z" />
    <path d="M515 290 c3 -5 8 -10 11 -10 2 0 4 5 4 10 0 6 -5 10 -11 10 -5 0 -7
-4 -4 -10z" />
    <path d="M545 220 l-6 -10 15 0 c9 0 16 5 16 10 0 6 -4 10 -9 10 -6 0 -13 -4
-16 -10z" />
    <path d="M380 210 c0 -5 7 -10 15 -10 8 0 15 5 15 10 0 6 -7 10 -15 10 -8 0
-15 -4 -15 -10z" />
  </g>
  <g transform="translate(0.000000,104.000000) scale(0.100000,-0.100000)" fill="#babbdc" stroke="none">
    <path d="M253 950 c-13 -5 -23 -12 -23 -15 0 -11 37 -4 56 10 l19 14 -15 0
c-8 0 -25 -4 -37 -9z" />
    <path d="M503 953 c9 -2 23 -2 30 0 6 3 -1 5 -18 5 l-30 0 18 -5z" />
    <path d="M421 941 c-14 -4 -26 -12 -29 -19 -5 -15 -2 -15 42 3 53 22 45 33
-13 16z" />
    <path d="M272 884 l-72 -35 -34 -42 c-50 -63 -84 -138 -98 -217 l-12 -70 12
-70 c7 -39 23 -97 37 -130 l25 -59 42 -40 c56 -52 154 -100 228 -112 l60 -9
58 9 c70 11 124 33 168 66 18 14 37 25 43 25 6 0 11 6 11 14 0 7 8 16 19 19
l18 4 28 59 c39 84 55 149 55 226 l0 66 -19 61 c-20 64 -66 151 -80 151 -5 0
-19 11 -32 25 -23 24 -49 33 -49 17 0 -4 24 -31 54 -59 l54 -51 23 -59 23 -58
0 -95 0 -95 -24 -60 -23 -60 -60 -59 -59 -58 -57 -27 -56 -26 -95 0 -95 0 -65
32 -65 32 -42 43 c-49 50 -89 132 -104 212 l-10 58 10 64 c12 79 46 155 95
210 36 43 110 89 126 79 5 -3 12 0 16 6 l7 12 -13 -8 -13 -8 7 12 8 12 13 -11
13 -11 8 13 c14 21 13 38 -1 38 -7 0 -44 -16 -83 -36z" />
    <path d="M750 820 c0 -5 7 -10 16 -10 l15 0 -6 10 c-3 6 -10 10 -16 10 -5 0
-9 -4 -9 -10z" />
    <path d="M360 800 c0 -5 5 -10 10 -10 6 0 10 5 10 10 0 6 -4 10 -10 10 -5 0
-10 -4 -10 -10z" />
    <path d="M565 750 c4 -6 11 -8 16 -5 14 9 11 15 -7 15 l-15 0 6 -10z" />
    <path d="M190 714 l0 -15 10 6 c6 3 10 10 10 16 0 5 -4 9 -10 9 -5 0 -10 -7
-10 -16z" />
    <path d="M415 720 c3 -5 8 -10 11 -10 2 0 4 5 4 10 0 6 -5 10 -11 10 -5 0 -7
-4 -4 -10z" />
    <path d="M680 690 c0 -5 5 -10 10 -10 6 0 10 5 10 10 0 6 -4 10 -10 10 -5 0
-10 -4 -10 -10z" />
    <path d="M166 654 c-9 -36 1 -43 14 -10 12 33 12 36 1 36 -5 0 -12 -12 -15
-26z" />
    <path d="M563 663 c4 -3 10 -3 14 0 3 4 0 7 -7 7 -7 0 -10 -3 -7 -7z" />
    <path d="M252 651 l-14 -8 16 -6 16 -6 0 14 c0 17 -1 17 -18 6z" />
    <path d="M434 648 l-7 -11 11 7 c12 7 16 16 8 16 -3 0 -8 -5 -12 -12z" />
    <path d="M635 640 c10 -11 20 -20 23 -20 3 0 -3 9 -13 20 -10 11 -20 20 -23
20 -3 0 3 -9 13 -20z" />
    <path d="M375 620 c3 -5 8 -10 11 -10 2 0 4 5 4 10 0 6 -5 10 -11 10 -5 0 -7
-4 -4 -10z" />
    <path d="M312 582 c-15 -31 -15 -49 -2 -57 l10 -6 -6 16 c-4 8 1 26 10 40 9
13 12 26 8 29 -4 2 -13 -7 -20 -22z" />
    <path d="M150 586 c0 -9 5 -16 10 -16 6 0 10 4 10 9 0 6 -4 13 -10 16 l-10 6
0 -15z" />
    <path d="M395 590 c3 -5 8 -10 11 -10 3 0 2 5 -1 10 -3 6 -8 10 -11 10 -3 0
-2 -4 1 -10z" />
    <path d="M220 525 l0 -45 10 0 10 0 0 45 0 45 -10 0 -10 0 0 -45z" />
    <path d="M463 543 c4 -3 10 -3 14 0 3 4 0 7 -7 7 -7 0 -10 -3 -7 -7z" />
    <path d="M0 515 c0 -14 5 -25 10 -25 6 0 10 11 10 25 0 14 -4 25 -10 25 -5 0
-10 -11 -10 -25z" />
    <path d="M612 515 l0 -30 5 18 c2 9 2 23 0 30 -3 6 -5 -1 -5 -18z" />
    <path d="M672 520 c0 -14 2 -19 5 -12 2 6 2 18 0 25 -3 6 -5 1 -5 -13z" />
    <path d="M498 523 c6 -2 18 -2 25 0 6 3 1 5 -13 5 -14 0 -19 -2 -12 -5z" />
    <path d="M385 491 c-3 -5 -1 -12 5 -16 l10 -6 0 15 c0 18 -6 21 -15 7z" />
    <path d="M150 464 l0 -15 10 6 c6 3 10 10 10 16 0 5 -4 9 -10 9 -5 0 -10 -7
-10 -16z" />
    <path d="M435 443 c8 -34 10 -36 26 -31 l12 4 -16 16 -16 15 12 12 11 11 -18
0 -18 0 7 -27z" />
    <path d="M355 450 l-6 -10 16 0 16 0 -6 10 c-3 6 -8 10 -10 10 -2 0 -7 -4 -10
-10z" />
    <path d="M235 440 c-3 -5 -1 -10 4 -10 6 0 11 5 11 10 0 6 -2 10 -4 10 -3 0
-8 -4 -11 -10z" />
    <path d="M735 421 c-3 -5 -1 -12 5 -16 l10 -6 0 15 c0 18 -6 21 -15 7z" />
    <path d="M170 394 l0 -15 10 6 c6 4 8 11 5 16 -9 14 -15 11 -15 -7z" />
    <path d="M384 378 l-7 -11 11 7 c12 7 16 16 8 16 -3 0 -8 -5 -12 -12z" />
    <path d="M633 373 c4 -3 10 -3 14 0 3 4 0 7 -7 7 -7 0 -10 -3 -7 -7z" />
    <path d="M425 361 c-3 -5 -1 -12 5 -16 l10 -6 0 15 c0 18 -6 21 -15 7z" />
    <path d="M210 320 c0 -5 5 -10 10 -10 6 0 10 5 10 10 0 6 -4 10 -10 10 -5 0
-10 -4 -10 -10z" />
    <path d="M330 319 c0 -5 5 -7 10 -4 6 3 10 8 10 11 0 2 -4 4 -10 4 -5 0 -10
-5 -10 -11z" />
    <path d="M540 309 c7 -11 14 -18 17 -15 8 8 -5 36 -17 36 l-11 0 11 -21z" />
    <path d="M390 289 c0 -5 5 -7 10 -4 6 3 10 8 10 11 0 2 -4 4 -10 4 -5 0 -10
-5 -10 -11z" />
    <path d="M440 280 c0 -5 9 -10 20 -10 11 0 20 5 20 10 0 6 -9 10 -20 10 -11 0
-20 -4 -20 -10z" />
    <path d="M840 264 l0 -15 10 6 c6 3 10 10 10 16 0 5 -4 9 -10 9 -5 0 -10 -7
-10 -16z" />
    <path d="M350 220 c0 -5 7 -10 16 -10 l15 0 -6 10 c-3 6 -10 10 -16 10 -5 0
-9 -4 -9 -10z" />
    <path d="M135 170 c20 -22 31 -20 22 5 -4 8 -14 15 -23 15 l-17 0 18 -20z" />
    <path d="M690 120 c0 -5 4 -10 9 -10 6 0 13 5 16 10 l6 10 -15 0 c-9 0 -16 -4
-16 -10z" />
    <path d="M390 50 c0 -5 7 -10 15 -10 8 0 15 5 15 10 0 6 -7 10 -15 10 -8 0
-15 -4 -15 -10z" />
  </g>
  <g transform="translate(0.000000,104.000000) scale(0.100000,-0.100000)" fill="#c3c4e0" stroke="none">
    <path d="M325 970 c-3 -5 -2 -10 4 -10 5 0 13 5 16 10 3 6 2 10 -4 10 -5 0
-13 -4 -16 -10z" />
    <path d="M573 965 c0 -8 6 -15 13 -15 7 0 19 -3 28 -6 l16 -6 0 11 c0 6 -7 11
-15 11 -8 0 -15 5 -15 10 0 6 -6 10 -13 10 -8 0 -14 -7 -14 -15z" />
    <path d="M200 920 l-25 -19 8 -8 9 -8 12 18 c7 9 18 17 25 17 6 0 11 5 11 10
0 15 -12 12 -40 -10z" />
    <path d="M369 929 c-21 -4 -64 -22 -97 -39 l-59 -30 -41 -44 c-46 -50 -77
-107 -99 -179 l-15 -50 1 -76 0 -76 19 -55 c11 -30 27 -68 36 -85 l16 -30 0
16 c0 9 -9 36 -19 60 -11 24 -25 74 -32 112 l-12 67 12 66 c14 76 48 150 97
211 l34 42 72 36 c39 19 78 33 87 30 9 -2 30 4 46 15 l30 20 -20 -1 c-11 -1
-36 -5 -56 -10z" />
    <path d="M343 893 c-15 -5 -17 -23 -4 -23 5 0 11 7 15 15 3 8 4 15 3 14 -1 0
-8 -3 -14 -6z" />
    <path d="M415 840 l-6 -10 15 0 c9 0 16 5 16 10 0 6 -4 10 -9 10 -6 0 -13 -4
-16 -10z" />
    <path d="M737 801 c46 -43 73 -90 97 -170 30 -101 18 -203 -39 -325 l-28 -59
-18 -4 c-11 -3 -19 -12 -19 -19 0 -8 -5 -14 -11 -14 -6 0 -25 -11 -43 -25 -43
-33 -98 -55 -163 -65 l-53 -9 -55 9 c-68 11 -168 60 -215 106 -53 51 -61 41
-10 -11 l45 -46 65 -31 65 -31 82 -5 82 -4 53 16 c49 16 158 81 166 99 2 4 10
7 17 7 8 0 20 10 26 22 7 13 15 25 18 28 15 12 53 124 63 184 l11 66 -11 66
c-19 117 -100 254 -150 254 l-17 0 42 -39z" />
    <path d="M100 814 l0 -15 10 6 c6 3 10 10 10 16 0 5 -4 9 -10 9 -5 0 -10 -7
-10 -16z" />
    <path d="M250 794 l0 -15 10 6 c6 3 10 10 10 16 0 5 -4 9 -10 9 -5 0 -10 -7
-10 -16z" />
    <path d="M800 788 c0 -18 27 -44 37 -34 4 4 -3 16 -15 29 l-22 21 0 -16z" />
    <path d="M320 760 c0 -5 5 -10 10 -10 6 0 10 5 10 10 0 6 -4 10 -10 10 -5 0
-10 -4 -10 -10z" />
    <path d="M46 734 c-9 -22 3 -32 14 -14 12 19 12 30 1 30 -5 0 -12 -7 -15 -16z" />
    <path d="M640 719 c0 -5 5 -7 10 -4 6 3 10 8 10 11 0 2 -4 4 -10 4 -5 0 -10
-5 -10 -11z" />
    <path d="M355 660 c3 -5 8 -10 11 -10 3 0 2 5 -1 10 -3 6 -8 10 -11 10 -3 0
-2 -4 1 -10z" />
    <path d="M710 650 c0 -5 5 -10 10 -10 6 0 10 5 10 10 0 6 -4 10 -10 10 -5 0
-10 -4 -10 -10z" />
    <path d="M890 646 c0 -9 5 -16 10 -16 6 0 10 4 10 9 0 6 -4 13 -10 16 l-10 6
0 -15z" />
    <path d="M380 634 l0 -15 10 6 c6 4 8 11 5 16 -9 14 -15 11 -15 -7z" />
    <path d="M235 621 c-3 -5 -1 -12 5 -16 l10 -6 0 15 c0 18 -6 21 -15 7z" />
    <path d="M330 620 c0 -5 5 -10 11 -10 5 0 7 5 4 10 -3 6 -8 10 -11 10 -2 0 -4
-4 -4 -10z" />
    <path d="M6 581 c-4 -7 -5 -15 -2 -18 9 -9 19 4 14 18 l-4 13 -8 -13z" />
    <path d="M225 571 c-3 -5 -1 -12 5 -16 l10 -6 0 15 c0 18 -6 21 -15 7z" />
    <path d="M385 560 c3 -5 8 -10 11 -10 2 0 4 5 4 10 0 6 -5 10 -11 10 -5 0 -7
-4 -4 -10z" />
    <path d="M752 531 l-14 -8 16 -6 16 -6 0 14 c0 17 -1 17 -18 6z" />
    <path d="M670 520 c0 -7 3 -10 7 -7 3 4 3 10 0 14 -4 3 -7 0 -7 -7z" />
    <path d="M450 504 l0 -15 10 6 c6 3 10 10 10 16 0 5 -4 9 -10 9 -5 0 -10 -7
-10 -16z" />
    <path d="M260 494 l0 -15 10 6 c6 4 8 11 5 16 -9 14 -15 11 -15 -7z" />
    <path d="M225 491 c-3 -5 -1 -12 5 -16 l10 -6 0 15 c0 18 -6 21 -15 7z" />
    <path d="M326 444 c-6 -16 2 -18 22 -5 l14 8 -15 6 -15 6 -6 -15z" />
    <path d="M450 409 c0 -5 5 -7 10 -4 6 3 10 8 10 11 0 2 -4 4 -10 4 -5 0 -10
-5 -10 -11z" />
    <path d="M274 378 l-7 -11 11 7 c7 4 12 9 12 12 0 8 -9 4 -16 -8z" />
    <path d="M433 373 l0 -13 14 11 c7 6 13 12 13 14 0 1 -6 2 -13 2 -8 0 -14 -6
-14 -14z" />
    <path d="M610 365 c-7 -9 -10 -18 -7 -21 3 -3 10 4 17 15 13 25 8 27 -10 6z" />
    <path d="M30 341 c0 -6 5 -13 10 -16 l10 -6 0 15 c0 9 -4 16 -10 16 -5 0 -10
-4 -10 -9z" />
    <path d="M465 340 c-3 -5 -1 -10 4 -10 6 0 11 5 11 10 0 6 -2 10 -4 10 -3 0
-8 -4 -11 -10z" />
    <path d="M866 323 c-3 -10 -9 -24 -12 -30 -3 -7 -1 -13 4 -13 5 0 12 8 16 18
3 9 9 23 12 30 3 6 1 12 -4 12 -5 0 -12 -8 -16 -17z" />
    <path d="M526 322 c-3 -5 1 -9 9 -9 8 0 12 4 9 9 -3 4 -7 8 -9 8 -2 0 -6 -4
-9 -8z" />
    <path d="M565 310 c3 -5 8 -10 11 -10 2 0 4 5 4 10 0 6 -5 10 -11 10 -5 0 -7
-4 -4 -10z" />
    <path d="M434 282 c6 -10 42 -9 52 1 4 4 -7 7 -25 7 -18 0 -30 -4 -27 -8z" />
    <path d="M70 266 c0 -9 5 -16 10 -16 6 0 10 4 10 9 0 6 -4 13 -10 16 l-10 6 0
-15z" />
    <path d="M280 260 c0 -5 5 -10 10 -10 6 0 10 5 10 10 0 6 -4 10 -10 10 -5 0
-10 -4 -10 -10z" />
    <path d="M620 260 c0 -5 5 -10 10 -10 6 0 10 5 10 10 0 6 -4 10 -10 10 -5 0
-10 -4 -10 -10z" />
    <path d="M826 251 c-4 -7 -5 -15 -2 -18 9 -9 19 4 14 18 l-4 13 -8 -13z" />
    <path d="M785 199 c-4 -6 -5 -13 -2 -16 7 -7 27 6 27 18 0 12 -17 12 -25 -2z" />
    <path d="M150 160 c0 -5 5 -10 10 -10 6 0 10 5 10 10 0 6 -4 10 -10 10 -5 0
-10 -4 -10 -10z" />
    <path d="M730 154 l-12 -14 20 0 c25 0 37 16 18 23 -8 3 -20 -1 -26 -9z" />
    <path d="M685 120 c-3 -5 -2 -10 4 -10 5 0 13 5 16 10 3 6 2 10 -4 10 -5 0
-13 -4 -16 -10z" />
    <path d="M585 70 l-6 -10 15 0 c9 0 16 5 16 10 0 6 -4 10 -9 10 -6 0 -13 -4
-16 -10z" />
    <path d="M490 50 c0 -13 37 -13 45 0 l6 10 -25 0 c-14 0 -26 -4 -26 -10z" />
  </g>
  <g transform="translate(0.000000,104.000000) scale(0.100000,-0.100000)" fill="#cbcbe4" stroke="none">
    <path d="M383 993 c-13 -2 -23 -9 -23 -15 l0 -10 16 6 c9 3 22 6 30 6 8 0 14
5 14 10 0 6 -3 9 -7 9 -5 -1 -18 -4 -30 -6z" />
    <path d="M500 991 c0 -8 48 -21 78 -21 l16 0 -9 9 c-14 12 -85 22 -85 12z" />
    <path d="M265 950 c-3 -5 -2 -10 4 -10 5 0 13 5 16 10 3 6 2 10 -4 10 -5 0
-13 -4 -16 -10z" />
    <path d="M484 948 l-7 -11 11 7 c12 7 16 16 8 16 -3 0 -8 -5 -12 -12z" />
    <path d="M434 938 c-3 -4 2 -8 10 -8 8 0 17 4 20 8 3 5 -2 9 -10 9 -8 0 -17
-4 -20 -9z" />
    <path d="M406 929 l7 -12 -28 7 -27 7 -72 -35 -72 -34 -41 -45 c-41 -44 -93
-134 -93 -159 0 -7 13 14 29 47 16 33 44 78 64 100 19 22 63 55 98 74 l64 35
39 0 39 1 5 13 c2 6 -1 12 -8 12 l-11 0 7 -11z" />
    <path d="M660 860 c0 -5 7 -10 16 -10 l15 0 -6 10 c-3 6 -10 10 -16 10 -5 0
-9 -4 -9 -10z" />
    <path d="M435 850 l-6 -10 15 0 c9 0 16 5 16 10 0 6 -4 10 -9 10 -6 0 -13 -4
-16 -10z" />
    <path d="M96 821 c-4 -7 -5 -15 -2 -18 9 -9 19 4 14 18 l-4 13 -8 -13z" />
    <path d="M740 811 c0 -8 25 -23 42 -25 3 -1 10 -5 15 -10 l8 -9 -12 7 c-7 4
-13 5 -13 3 0 -3 11 -24 25 -49 13 -24 31 -68 39 -98 l15 -55 0 25 c0 14 -11
52 -26 85 -14 33 -25 72 -25 86 l1 26 -25 12 c-30 13 -44 14 -44 2z" />
    <path d="M495 750 c4 -6 11 -8 16 -5 14 9 11 15 -7 15 l-15 0 6 -10z" />
    <path d="M207 743 c-4 -3 -7 -11 -7 -17 l0 -10 12 12 c6 6 9 14 7 17 -3 3 -9
2 -12 -2z" />
    <path d="M595 740 c4 -6 11 -8 16 -5 14 9 11 15 -7 15 l-15 0 6 -10z" />
    <path d="M435 730 c3 -5 8 -10 11 -10 3 0 2 5 -1 10 -3 6 -8 10 -11 10 -3 0
-2 -4 1 -10z" />
    <path d="M850 726 c0 -9 5 -16 10 -16 6 0 10 4 10 9 0 6 -4 13 -10 16 l-10 6
0 -15z" />
    <path d="M275 690 c3 -5 1 -10 -5 -10 l-11 0 7 -11 7 -11 8 13 c12 19 11 29
-2 29 -5 0 -7 -4 -4 -10z" />
    <path d="M518 683 c7 -3 16 -2 19 1 4 3 -2 6 -13 5 l-19 -1 13 -5z" />
    <path d="M380 640 c0 -7 3 -10 7 -7 3 4 3 10 0 14 -4 3 -7 0 -7 -7z" />
    <path d="M70 630 c0 -7 3 -10 7 -7 3 4 3 10 0 14 -4 3 -7 0 -7 -7z" />
    <path d="M725 631 c-3 -5 -1 -12 5 -16 l10 -6 0 15 c0 18 -6 21 -15 7z" />
    <path d="M10 614 l0 -15 10 6 c6 3 10 10 10 16 0 5 -4 9 -10 9 -5 0 -10 -7
-10 -16z" />
    <path d="M62 585 l0 -30 5 18 c2 9 2 23 0 30 -3 6 -5 -1 -5 -18z" />
    <path d="M150 574 l0 -15 10 6 c6 4 8 11 5 16 -9 14 -15 11 -15 -7z" />
    <path d="M900 571 c0 -6 5 -13 10 -16 l10 -6 0 15 c0 9 -4 16 -10 16 -5 0 -10
-4 -10 -9z" />
    <path d="M863 520 c0 -30 2 -43 4 -27 2 15 2 39 0 55 -2 15 -4 2 -4 -28z" />
    <path d="M50 510 c0 -7 3 -10 7 -7 3 4 3 10 0 14 -4 3 -7 0 -7 -7z" />
    <path d="M150 474 l0 -15 10 6 c6 4 8 11 5 16 -9 14 -15 11 -15 -7z" />
    <path d="M61 454 c0 -16 4 -38 9 -49 l9 -20 -6 45 c-7 53 -13 66 -12 24z" />
    <path d="M752 471 l-14 -8 16 -6 16 -6 0 14 c0 17 -1 17 -18 6z" />
    <path d="M0 461 c0 -6 5 -13 10 -16 l10 -6 0 15 c0 9 -4 16 -10 16 -5 0 -10
-4 -10 -9z" />
    <path d="M315 460 c-3 -5 -1 -10 4 -10 6 0 11 5 11 10 0 6 -2 10 -4 10 -3 0
-8 -4 -11 -10z" />
    <path d="M355 440 c3 -5 8 -10 11 -10 2 0 4 5 4 10 0 6 -5 10 -11 10 -5 0 -7
-4 -4 -10z" />
    <path d="M847 418 c-4 -21 -19 -62 -32 -93 -14 -30 -21 -55 -17 -55 5 0 14 15
20 33 6 17 18 52 27 76 9 24 14 51 12 60 -1 9 -6 -1 -10 -21z" />
    <path d="M160 424 l0 -15 10 6 c6 4 8 11 5 16 -9 14 -15 11 -15 -7z" />
    <path d="M260 428 c0 -7 4 -20 10 -28 l9 -14 8 8 8 9 -13 4 c-6 3 -10 9 -7 13
3 5 1 11 -5 15 -5 3 -10 0 -10 -7z" />
    <path d="M10 401 c0 -6 5 -13 10 -16 l10 -6 0 15 c0 9 -4 16 -10 16 -5 0 -10
-4 -10 -9z" />
    <path d="M445 390 c3 -5 8 -10 11 -10 2 0 4 5 4 10 0 6 -5 10 -11 10 -5 0 -7
-4 -4 -10z" />
    <path d="M80 370 c0 -7 3 -10 7 -7 3 4 3 10 0 14 -4 3 -7 0 -7 -7z" />
    <path d="M623 373 c4 -3 10 -3 14 0 3 4 0 7 -7 7 -7 0 -10 -3 -7 -7z" />
    <path d="M190 350 c0 -5 5 -10 10 -10 6 0 10 5 10 10 0 6 -4 10 -10 10 -5 0
-10 -4 -10 -10z" />
    <path d="M90 344 c0 -6 7 -19 16 -30 l15 -19 -12 25 c-14 31 -19 36 -19 24z" />
    <path d="M40 326 c0 -9 5 -16 10 -16 6 0 10 4 10 9 0 6 -4 13 -10 16 l-10 6 0
-15z" />
    <path d="M364 298 l-7 -11 11 7 c7 4 12 9 12 12 0 8 -9 4 -16 -8z" />
    <path d="M50 291 c0 -6 5 -13 10 -16 l10 -6 0 15 c0 9 -4 16 -10 16 -5 0 -10
-4 -10 -9z" />
    <path d="M124 272 c4 -7 30 -34 57 -59 59 -55 152 -102 217 -108 l47 -5 -55
13 c-83 19 -149 55 -214 116 -32 31 -56 50 -52 43z" />
    <path d="M310 241 c0 -9 24 -21 41 -21 6 0 7 5 4 10 -4 6 -11 8 -16 5 -5 -4
-9 -1 -9 4 0 6 -4 11 -10 11 -5 0 -10 -4 -10 -9z" />
    <path d="M590 239 c0 -5 -4 -8 -9 -4 -5 3 -12 1 -16 -5 -7 -11 5 -13 29 -4 18
7 22 24 6 24 -5 0 -10 -5 -10 -11z" />
    <path d="M770 242 c0 -6 -8 -13 -17 -15 l-18 -5 17 -1 c18 -1 34 16 24 26 -3
4 -6 1 -6 -5z" />
    <path d="M395 210 l-6 -10 16 0 16 0 -6 10 c-3 6 -8 10 -10 10 -2 0 -7 -4 -10
-10z" />
    <path d="M505 210 l-6 -10 16 0 16 0 -6 10 c-3 6 -8 10 -10 10 -2 0 -7 -4 -10
-10z" />
    <path d="M681 180 c-19 -16 -56 -37 -82 -46 -27 -10 -47 -20 -44 -22 2 -3 22
3 45 12 48 19 149 86 129 86 -8 -1 -29 -14 -48 -30z" />
    <path d="M120 190 c0 -5 5 -10 10 -10 6 0 10 5 10 10 0 6 -4 10 -10 10 -5 0
-10 -4 -10 -10z" />
    <path d="M740 160 c0 -5 7 -10 15 -10 8 0 15 5 15 10 0 6 -7 10 -15 10 -8 0
-15 -4 -15 -10z" />
    <path d="M195 120 c3 -5 10 -10 16 -10 5 0 9 5 9 10 0 6 -7 10 -16 10 l-15 0
6 -10z" />
    <path d="M493 103 c9 -2 25 -2 35 0 9 3 1 5 -18 5 -19 0 -27 -2 -17 -5z" />
    <path d="M255 90 c3 -5 10 -10 16 -10 5 0 9 5 9 10 0 6 -7 10 -16 10 l-15 0 6
-10z" />
    <path d="M305 70 c3 -5 10 -10 16 -10 5 0 9 5 9 10 0 6 -7 10 -16 10 l-15 0 6
-10z" />
    <path d="M384 52 c2 -4 19 -9 36 -10 l31 -2 -6 10 c-3 5 -20 10 -36 10 -17 0
-28 -4 -25 -8z" />
    <path d="M485 50 l-6 -10 16 0 16 0 -6 10 c-3 6 -8 10 -10 10 -2 0 -7 -4 -10
-10z" />
  </g>
  <g transform="translate(0.000000,104.000000) scale(0.100000,-0.100000)" fill="#7477b9" stroke="none">
    <path d="M445 851 c-22 -10 -49 -26 -60 -35 l-20 -15 18 -1 c9 0 17 5 17 11
l0 12 69 -5 70 -5 46 -27 c26 -15 45 -30 42 -32 -2 -2 -18 1 -36 7 l-32 11
-50 -4 c-27 -3 -52 -8 -56 -12 -13 -13 6 -17 38 -8 l34 8 45 -9 c25 -5 54 -10
64 -11 36 -4 113 -119 107 -158 -1 -10 3 -18 8 -18 l11 0 0 -60 0 -60 -10 0
c-6 0 -10 -6 -8 -12 4 -22 -39 -92 -81 -135 -23 -22 -58 -49 -79 -59 l-37 -19
-85 0 -85 0 -36 18 c-20 10 -61 42 -92 71 l-55 53 -13 44 c-7 24 -17 49 -22
54 l-9 10 7 -35 c10 -45 41 -107 68 -135 34 -33 98 -73 146 -90 59 -21 130
-19 194 5 60 23 130 78 152 120 8 15 22 35 30 44 9 9 21 43 27 77 l12 60 -11
65 c-6 35 -18 71 -27 80 -9 9 -23 28 -31 43 -31 61 -146 140 -204 141 l-23 0
12 15 12 15 -13 0 c-8 0 -32 -9 -54 -19z" />
    <path d="M227 783 c-4 -3 -7 -11 -7 -17 l0 -10 12 12 c6 6 9 14 7 17 -3 3 -9
2 -12 -2z" />
    <path d="M331 766 c-8 -9 -11 -19 -7 -23 9 -9 29 13 24 27 l-4 12 -13 -16z" />
    <path d="M192 723 c-17 -33 -44 -123 -40 -134 2 -7 16 24 30 67 25 77 29 105
10 67z" />
    <path d="M410 730 c0 -5 4 -10 9 -10 6 0 13 5 16 10 l6 10 -15 0 c-9 0 -16 -4
-16 -10z" />
    <path d="M278 684 c-13 -27 -26 -50 -30 -52 -13 -6 -9 -22 5 -22 13 0 63 107
54 117 -3 3 -16 -17 -29 -43z" />
    <path d="M370 694 l0 -16 15 12 c8 7 15 14 15 16 0 2 -7 4 -15 4 -8 0 -15 -7
-15 -16z" />
    <path d="M314 605 c-6 -23 2 -63 10 -54 2 2 6 21 9 42 l6 37 -9 0 c-5 0 -12
-11 -16 -25z" />
    <path d="M410 605 c0 -8 2 -15 4 -15 2 0 6 7 10 15 3 8 1 15 -4 15 -6 0 -10
-7 -10 -15z" />
    <path d="M236 581 c-4 -7 -5 -15 -2 -18 9 -9 19 4 14 18 l-4 13 -8 -13z" />
    <path d="M396 571 c-4 -7 -5 -15 -2 -18 9 -9 19 4 14 18 l-4 13 -8 -13z" />
    <path d="M147 563 c-11 -10 -8 -81 3 -88 l10 -6 0 50 c0 28 -1 51 -3 51 -2 0
-7 -3 -10 -7z" />
    <path d="M450 523 c0 -14 3 -23 7 -19 10 10 11 46 1 46 -4 0 -8 -12 -8 -27z" />
    <path d="M260 524 l0 -15 10 6 c6 3 10 10 10 16 0 5 -4 9 -10 9 -5 0 -10 -7
-10 -16z" />
    <path d="M314 529 c-3 -6 -1 -16 5 -22 l11 -11 0 22 c0 24 -5 28 -16 11z" />
    <path d="M390 475 c0 -14 5 -25 11 -25 14 0 39 -25 39 -39 0 -6 5 -11 10 -11
13 0 9 32 -5 42 l-10 7 20 16 20 16 -28 -6 -27 -5 -6 15 c-9 24 -24 18 -24
-10z" />
    <path d="M233 478 c2 -7 10 -13 17 -13 7 0 15 6 18 13 l4 12 -22 0 -22 0 5
-12z" />
    <path d="M318 484 c-8 -12 27 -74 42 -74 5 0 10 7 10 15 l0 14 -13 -5 -14 -5
-9 33 -10 33 -6 -11z" />
    <path d="M240 442 c0 -5 7 -13 16 -16 l16 -6 -4 12 c-5 15 -28 23 -28 10z" />
    <path d="M270 405 c0 -5 9 -21 20 -35 11 -14 20 -20 20 -15 0 6 -9 21 -20 35
-11 14 -20 21 -20 15z" />
    <path d="M395 380 c3 -5 13 -10 21 -10 8 0 14 -7 14 -15 0 -15 12 -20 23 -9 8
8 -36 44 -53 44 -6 0 -8 -4 -5 -10z" />
    <path d="M587 338 c-16 -11 -39 -20 -53 -20 -13 0 -24 -4 -24 -9 0 -5 -9 -9
-20 -9 -11 0 -20 -4 -20 -10 0 -5 6 -10 14 -10 8 0 18 5 21 10 3 6 17 10 30
10 l25 0 32 30 c38 34 35 39 -5 8z" />
    <path d="M325 330 c3 -5 10 -10 16 -10 5 0 9 5 9 10 0 6 -7 10 -16 10 l-15 0
6 -10z" />
    <path d="M415 290 c3 -5 15 -10 26 -10 10 0 19 5 19 10 0 6 -12 10 -26 10
l-25 0 6 -10z" />
  </g>
  <g transform="translate(0.000000,104.000000) scale(0.100000,-0.100000)" fill="#6467b5" stroke="none">
    <path d="M380 809 c-22 -16 -40 -34 -40 -39 0 -14 12 -12 39 7 l24 16 59 0 59
0 28 -21 c16 -12 42 -24 57 -28 16 -4 50 -29 76 -55 26 -26 48 -44 48 -39 0
17 -66 95 -108 127 -44 33 -83 47 -159 56 l-43 5 -40 -29z" />
    <path d="M420 740 c0 -5 -5 -10 -11 -10 -15 0 -59 -42 -59 -57 0 -6 -4 -13
-10 -15 -5 -1 -16 -19 -24 -38 l-14 -35 15 -20 15 -20 -5 24 -6 24 19 37 c18
36 51 72 95 104 l20 15 -17 1 c-10 0 -18 -4 -18 -10z" />
    <path d="M306 731 c-4 -7 -5 -15 -2 -18 9 -9 19 4 14 18 l-4 13 -8 -13z" />
    <path d="M263 642 c-3 -12 -9 -22 -14 -22 -5 0 -9 -4 -9 -10 0 -5 6 -10 14
-10 14 0 32 48 21 58 -3 3 -8 -4 -12 -16z" />
    <path d="M375 630 c-3 -5 -1 -10 4 -10 6 0 11 5 11 10 0 6 -2 10 -4 10 -3 0
-8 -4 -11 -10z" />
    <path d="M400 576 c-12 -33 -12 -36 -1 -36 10 0 25 50 17 58 -3 2 -10 -7 -16
-22z" />
    <path d="M235 567 c-4 -10 -5 -21 -1 -24 10 -10 18 4 13 24 l-4 18 -8 -18z" />
    <path d="M430 566 c0 -9 5 -16 10 -16 6 0 10 4 10 9 0 6 -4 13 -10 16 l-10 6
0 -15z" />
    <path d="M260 534 l0 -15 10 6 c6 3 10 10 10 16 0 5 -4 9 -10 9 -5 0 -10 -7
-10 -16z" />
    <path d="M760 520 l0 -24 12 12 12 12 -12 12 -12 12 0 -24z" />
    <path d="M230 491 c0 -6 5 -13 10 -16 l10 -6 0 15 c0 9 -4 16 -10 16 -5 0 -10
-4 -10 -9z" />
    <path d="M320 484 c0 -10 5 -26 10 -34 l11 -15 -7 30 c-8 37 -14 45 -14 19z" />
    <path d="M450 486 c0 -9 5 -16 10 -16 6 0 10 4 10 9 0 6 -4 13 -10 16 l-10 6
0 -15z" />
    <path d="M384 459 l-17 -19 31 0 c18 0 32 -4 32 -9 0 -5 3 -16 6 -25 l6 -16
-23 0 -23 0 11 -11 11 -11 21 14 21 13 -6 20 c-4 11 -11 23 -17 26 -5 4 -7 11
-3 17 3 5 -3 12 -14 15 l-19 5 -17 -19z" />
    <path d="M256 437 c3 -10 9 -15 12 -12 3 3 0 11 -7 18 l-12 12 7 -18z" />
    <path d="M756 433 l-7 -18 12 12 c7 7 10 15 7 18 -3 3 -9 -2 -12 -12z" />
    <path d="M356 422 c-7 -12 22 -38 31 -28 4 3 0 14 -9 22 l-16 16 -6 -10z" />
    <path d="M270 401 c0 -6 4 -13 10 -16 l10 -6 -6 15 c-7 18 -14 21 -14 7z" />
    <path d="M170 391 c0 -6 4 -13 10 -16 l10 -6 -6 15 c-7 18 -14 21 -14 7z" />
    <path d="M725 379 c-4 -6 -5 -12 -2 -15 2 -3 7 2 10 11 7 17 1 20 -8 4z" />
    <path d="M300 361 c0 -11 86 -71 102 -71 4 0 8 5 8 10 0 6 -7 10 -16 10 -9 0
-34 14 -55 31 -21 17 -39 26 -39 20z" />
    <path d="M430 345 l-12 -15 20 0 21 0 -5 15 c-4 8 -7 15 -9 15 -1 0 -8 -7 -15
-15z" />
    <path d="M580 330 l-15 -10 12 0 c6 0 15 5 18 10 8 12 4 12 -15 0z" />
    <path d="M697 333 c-4 -3 -7 -11 -7 -17 l0 -10 12 12 c6 6 9 14 7 17 -3 3 -9
2 -12 -2z" />
    <path d="M480 323 c0 -4 9 -14 20 -21 l20 -12 20 10 c11 6 20 12 20 14 0 2
-10 4 -22 3 -13 0 -31 3 -40 7 l-18 8 0 -9z" />
    <path d="M445 290 c3 -5 12 -10 20 -10 8 0 17 5 20 10 l6 10 -26 0 -26 0 6
-10z" />
    <path d="M275 260 c3 -5 11 -10 16 -10 6 0 7 5 4 10 -3 6 -11 10 -16 10 -6 0
-7 -4 -4 -10z" />
    <path d="M377 209 c7 -7 15 -10 18 -7 3 3 -2 9 -12 12 l-18 7 12 -12z" />
    <path d="M530 210 l-15 -10 12 0 c6 0 15 5 18 10 8 12 4 12 -15 0z" />
  </g>
  <g transform="translate(0.000000,104.000000) scale(0.100000,-0.100000)" fill="#6266a4" stroke="none">
    <path d="M455 856 c-16 -8 -39 -21 -50 -30 l-20 -17 35 17 c19 10 53 23 75 30
l40 13 -25 0 c-14 0 -38 -6 -55 -13z" />
    <path d="M215 756 c-20 -31 -57 -127 -51 -133 2 -2 9 13 16 34 7 21 23 57 37
81 26 45 24 58 -2 18z" />
    <path d="M458 763 c-10 -2 -18 -9 -18 -14 l0 -10 23 6 c12 4 26 11 32 16 l9 9
-14 -1 c-8 -1 -23 -3 -32 -6z" />
    <path d="M574 761 c3 -5 18 -11 33 -14 l28 -5 -20 14 c-21 15 -49 19 -41 5z" />
    <path d="M307 727 c-20 -30 -21 -37 -7 -37 6 0 10 6 10 14 0 8 5 16 12 18 6 2
9 10 7 17 l-5 14 -17 -26z" />
    <path d="M725 645 c4 -11 10 -29 13 -40 3 -11 12 -27 20 -35 l15 -15 -7 30
c-4 16 -11 32 -15 35 -4 3 -13 14 -20 25 l-13 20 7 -20z" />
    <path d="M153 520 c0 -41 2 -58 4 -37 2 20 2 54 0 75 -2 20 -4 3 -4 -38z" />
    <path d="M236 551 c-4 -7 -5 -15 -2 -18 9 -9 19 4 14 18 l-4 13 -8 -13z" />
    <path d="M440 546 c0 -9 5 -16 10 -16 6 0 10 4 10 9 0 6 -4 13 -10 16 l-10 6
0 -15z" />
    <path d="M763 480 c0 -25 2 -35 4 -22 2 12 2 32 0 45 -2 12 -4 2 -4 -23z" />
    <path d="M230 501 c0 -6 5 -13 10 -16 l10 -6 0 15 c0 9 -4 16 -10 16 -5 0 -10
-4 -10 -9z" />
    <path d="M320 500 c0 -7 3 -10 7 -7 3 4 3 10 0 14 -4 3 -7 0 -7 -7z" />
    <path d="M240 450 c0 -5 5 -10 10 -10 6 0 10 5 10 10 0 6 -4 10 -10 10 -5 0
-10 -4 -10 -10z" />
    <path d="M161 430 c0 -8 4 -22 9 -30 12 -18 12 -2 0 25 l-9 20 0 -15z" />
    <path d="M260 421 c0 -6 4 -13 10 -16 l10 -6 -6 15 c-7 18 -14 21 -14 7z" />
    <path d="M740 421 c0 -5 -3 -18 -7 -28 l-7 -18 17 17 c19 18 22 38 7 38 -5 0
-10 -4 -10 -9z" />
    <path d="M360 416 c0 -2 7 -9 15 -16 l15 -12 0 16 c0 9 -7 16 -15 16 -8 0 -15
-2 -15 -4z" />
    <path d="M280 386 c0 -2 8 -10 18 -17 l17 -14 -14 18 c-13 16 -21 21 -21 13z" />
    <path d="M180 373 c0 -20 57 -84 105 -118 27 -19 54 -35 59 -35 5 0 -17 18
-49 39 -32 22 -71 59 -87 82 -15 23 -28 38 -28 32z" />
    <path d="M695 330 c-31 -44 -79 -84 -127 -105 -18 -8 -26 -14 -17 -15 20 0 98
50 125 81 26 29 58 79 52 79 -3 0 -18 -18 -33 -40z" />
    <path d="M335 330 c3 -5 8 -10 11 -10 3 0 2 5 -1 10 -3 6 -8 10 -11 10 -3 0
-2 -4 1 -10z" />
    <path d="M550 315 c-14 -8 -20 -14 -14 -15 5 0 19 7 30 15 24 18 16 19 -16 0z" />
    <path d="M363 213 c4 -3 10 -3 14 0 3 4 0 7 -7 7 -7 0 -10 -3 -7 -7z" />
    <path d="M403 203 c9 -2 23 -2 30 0 6 3 -1 5 -18 5 l-30 0 18 -5z" />
    <path d="M493 203 c9 -2 23 -2 30 0 6 3 -1 5 -18 5 l-30 0 18 -5z" />
  </g>
  <g transform="translate(0.000000,104.000000) scale(0.100000,-0.100000)" fill="#4c4da8" stroke="none">
    <path d="M410 803 c-14 -3 -37 -14 -51 -24 -31 -22 -85 -102 -94 -141 -4 -16
-11 -28 -16 -28 -5 0 -9 -4 -9 -10 0 -5 6 -10 13 -10 7 0 20 23 30 51 21 58
38 78 89 102 41 19 58 21 58 7 0 -5 -7 -10 -15 -10 -8 0 -15 -5 -15 -11 0 -6
3 -9 8 -7 4 2 25 12 47 22 l39 18 64 -4 63 -4 -44 22 c-46 24 -123 36 -167 27z" />
    <path d="M340 664 l0 -15 10 6 c6 3 10 10 10 16 0 5 -4 9 -10 9 -5 0 -10 -7
-10 -16z" />
    <path d="M410 590 c0 -5 5 -10 11 -10 5 0 7 5 4 10 -3 6 -8 10 -11 10 -2 0 -4
-4 -4 -10z" />
    <path d="M762 540 c0 -19 2 -27 5 -17 2 9 2 25 0 35 -3 9 -5 1 -5 -18z" />
    <path d="M260 544 l0 -15 10 6 c6 3 10 10 10 16 0 5 -4 9 -10 9 -5 0 -10 -7
-10 -16z" />
    <path d="M320 550 c0 -7 3 -10 7 -7 3 4 3 10 0 14 -4 3 -7 0 -7 -7z" />
    <path d="M396 551 c-4 -7 -5 -15 -2 -18 9 -9 19 4 14 18 l-4 13 -8 -13z" />
    <path d="M235 536 l-8 -19 11 -18 c7 -10 9 -25 6 -34 -3 -8 -2 -15 4 -15 13 0
24 43 13 50 -5 3 -11 16 -13 30 l-4 25 -9 -19z" />
    <path d="M321 514 l1 -19 5 13 c3 7 2 16 -1 19 -3 4 -6 -2 -5 -13z" />
    <path d="M440 505 c0 -8 5 -15 10 -15 6 0 10 7 10 15 0 8 -4 15 -10 15 -5 0
-10 -7 -10 -15z" />
    <path d="M390 502 c0 -5 6 -17 14 -28 19 -25 31 -12 14 15 -13 21 -28 28 -28
13z" />
    <path d="M387 453 c-4 -4 6 -12 23 -19 16 -7 30 -18 30 -24 0 -16 -37 -12 -55
6 -23 23 -30 10 -8 -15 20 -24 55 -27 72 -7 l12 14 -11 7 c-6 3 -8 10 -5 14 2
5 -7 13 -21 20 -29 13 -29 13 -37 4z" />
    <path d="M315 350 c10 -11 20 -20 23 -20 3 0 -3 9 -13 20 -10 11 -20 20 -23
20 -3 0 3 -9 13 -20z" />
    <path d="M391 316 l-12 -14 19 -6 c26 -9 118 -5 134 5 l13 9 -20 1 c-11 1 -40
1 -64 -1 l-44 -2 -7 11 -7 12 -12 -15z" />
    <path d="M553 313 c4 -3 10 -3 14 0 3 4 0 7 -7 7 -7 0 -10 -3 -7 -7z" />
  </g>
  <g transform="translate(0.000000,104.000000) scale(0.100000,-0.100000)" fill="#1a1b93" stroke="none">
    <path d="M353 730 c-18 -10 -41 -28 -53 -40 -29 -29 -60 -117 -60 -172 l0 -48
10 0 c5 0 12 11 15 25 3 14 7 37 10 51 l6 26 20 5 20 6 -3 16 c-3 18 7 32 70
99 23 24 42 46 42 48 0 11 -49 1 -77 -16z" />
    <path d="M408 584 c-4 -3 3 -15 14 -26 24 -24 34 -18 18 11 -11 21 -22 26 -32
15z" />
    <path d="M440 497 c0 -20 -16 -23 -23 -4 -2 6 -8 9 -12 5 -10 -10 13 -38 32
-38 19 0 28 29 14 43 l-11 11 0 -17z" />
    <path d="M400 447 c0 -8 7 -17 15 -21 8 -3 15 -12 15 -21 0 -8 5 -15 10 -15
12 0 13 20 2 35 -4 6 -15 16 -24 24 l-18 13 0 -15z" />
    <path d="M360 437 c0 -8 9 -22 20 -32 l20 -18 0 14 c-1 15 -23 49 -34 49 -3 0
-6 -6 -6 -13z" />
    <path d="M400 320 c-6 -11 -7 -20 -3 -21 50 -5 113 -4 113 1 0 17 -39 40 -68
40 l-31 0 -11 -20z" />
  </g>
  <g transform="translate(0.000000,104.000000) scale(0.100000,-0.100000)" fill="#31329c" stroke="none">
    <path d="M411 770 c-42 -10 -82 -30 -99 -50 -18 -22 -38 -61 -46 -90 l-7 -25
17 29 c30 53 110 113 137 103 7 -2 23 4 36 15 l24 18 20 -6 20 -6 -7 11 c-8
12 -45 13 -95 1z" />
    <path d="M330 666 c0 -2 -7 -20 -15 -39 l-15 -36 10 -6 c6 -4 9 -3 8 2 -1 4 3
18 10 29 6 12 8 24 5 28 -3 3 -1 6 5 6 7 0 12 5 12 10 0 6 -4 10 -10 10 -5 0
-10 -2 -10 -4z" />
    <path d="M240 585 c0 -8 5 -15 10 -15 6 0 10 7 10 15 0 8 -4 15 -10 15 -5 0
-10 -7 -10 -15z" />
    <path d="M410 580 c-8 -5 -11 -12 -7 -16 4 -4 13 -2 19 4 6 6 10 14 7 16 -2 3
-11 1 -19 -4z" />
    <path d="M321 534 l1 -19 5 13 c3 7 2 16 -1 19 -3 4 -6 -2 -5 -13z" />
    <path d="M395 538 c-4 -10 -4 -26 0 -35 l8 -18 4 18 c3 9 3 25 0 35 l-4 17 -8
-17z" />
    <path d="M440 525 l0 -26 10 6 c6 3 10 12 10 20 0 8 -4 17 -10 20 l-10 6 0
-26z" />
    <path d="M760 530 c0 -7 3 -10 7 -7 3 4 3 10 0 14 -4 3 -7 0 -7 -7z" />
    <path d="M240 470 c0 -5 5 -10 10 -10 6 0 10 5 10 10 0 6 -4 10 -10 10 -5 0
-10 -4 -10 -10z" />
    <path d="M435 470 c3 -5 8 -10 11 -10 2 0 4 5 4 10 0 6 -5 10 -11 10 -5 0 -7
-4 -4 -10z" />
    <path d="M395 450 c-3 -5 -1 -10 4 -10 6 0 11 5 11 10 0 6 -2 10 -4 10 -3 0
-8 -4 -11 -10z" />
    <path d="M363 435 c0 -8 4 -15 9 -15 4 0 8 7 8 15 0 8 -4 15 -8 15 -5 0 -9 -7
-9 -15z" />
    <path d="M430 416 l0 -17 -20 6 -20 6 0 -9 c0 -12 35 -22 47 -13 10 7 11 26 1
37 -5 4 -8 0 -8 -10z" />
    <path d="M405 330 l-6 -10 16 0 16 0 -6 10 c-3 6 -8 10 -10 10 -2 0 -7 -4 -10
-10z" />
    <path d="M465 330 c-3 -5 -1 -10 4 -10 6 0 11 5 11 10 0 6 -2 10 -4 10 -3 0
-8 -4 -11 -10z" />
    <path d="M490 300 l-15 -10 17 0 c9 0 20 5 23 10 8 13 -5 13 -25 0z" />
    <path d="M413 293 c4 -3 10 -3 14 0 3 4 0 7 -7 7 -7 0 -10 -3 -7 -7z" />
  </g>
  <g transform="translate(0.000000,104.000000) scale(0.100000,-0.100000)" fill="#06088a" stroke="none">
    <path d="M333 667 c-11 -12 -28 -37 -38 -56 l-17 -33 14 4 c7 2 20 18 29 36 9
17 22 39 29 47 21 25 5 27 -17 2z" />
    <path d="M407 573 c-11 -10 -8 -72 3 -93 l10 -19 15 5 15 6 0 35 c0 51 -23 87
-43 66z" />
    <path d="M370 437 c0 -19 33 -47 53 -47 l17 0 0 20 c0 20 -27 40 -54 40 -9 0
-16 -6 -16 -13z" />
    <path d="M420 330 l-15 -10 40 1 40 0 -20 9 c-26 11 -28 11 -45 0z" />
  </g>
  <g transform="translate(0.000000,104.000000) scale(0.100000,-0.100000)" fill="#646e7f" stroke="none">
    <path d="M450 990 c0 -5 9 -10 20 -10 11 0 20 5 20 10 0 6 -9 10 -20 10 -11 0
-20 -4 -20 -10z" />
    <path d="M378 983 c6 -2 18 -2 25 0 6 3 1 5 -13 5 -14 0 -19 -2 -12 -5z" />
    <path d="M518 983 c6 -2 18 -2 25 0 6 3 1 5 -13 5 -14 0 -19 -2 -12 -5z" />
    <path d="M585 971 c3 -5 -3 -12 -12 -15 l-18 -5 24 2 c14 1 26 8 29 15 l4 12
-17 0 c-9 0 -14 -4 -10 -9z" />
    <path d="M233 935 c-18 -8 -33 -19 -33 -24 l0 -10 33 17 c42 22 41 21 36 26
-2 2 -19 -2 -36 -9z" />
    <path d="M140 865 c-18 -19 -31 -37 -29 -40 3 -2 23 13 44 35 22 22 35 40 29
40 -6 0 -25 -16 -44 -35z" />
    <path d="M665 850 c28 -11 55 -18 60 -16 15 6 -60 36 -87 36 l-23 -1 50 -19z" />
    <path d="M252 810 c-24 -23 -29 -42 -9 -34 16 6 51 54 39 54 -4 0 -18 -9 -30
-20z" />
    <path d="M75 784 c-26 -40 -65 -151 -64 -182 l1 -27 5 20 c14 57 47 141 68
176 14 21 21 39 16 39 -5 0 -16 -12 -26 -26z" />
    <path d="M780 795 c7 -9 15 -13 17 -11 7 7 -7 26 -19 26 l-10 0 12 -15z" />
    <path d="M830 745 c7 -8 17 -15 22 -15 l10 0 -12 15 c-7 8 -17 15 -22 15 l-10
0 12 -15z" />
    <path d="M890 636 c0 -9 5 -16 10 -16 6 0 10 4 10 9 0 6 -4 13 -10 16 l-10 6
0 -15z" />
    <path d="M906 563 c10 -40 14 -41 14 -5 0 18 -5 32 -10 32 l-10 0 6 -27z" />
    <path d="M908 475 c-3 -14 -1 -25 3 -25 5 0 9 11 9 25 0 14 -2 25 -4 25 -2 0
-6 -11 -8 -25z" />
    <path d="M15 416 c4 -37 11 -54 19 -45 2 2 -3 22 -10 44 l-14 40 5 -39z" />
    <path d="M890 384 c-25 -69 -35 -91 -57 -127 -13 -20 -31 -47 -41 -58 -19 -23
-103 -81 -144 -100 -30 -13 -39 -32 -10 -22 9 3 38 21 65 40 26 18 51 33 56
33 11 0 70 73 98 120 27 47 57 129 50 137 -4 3 -11 -7 -17 -23z" />
    <path d="M36 335 c4 -8 8 -15 10 -15 2 0 4 7 4 15 0 8 -4 15 -10 15 -5 0 -7
-7 -4 -15z" />
    <path d="M71 265 c0 -5 13 -26 29 -45 16 -19 29 -30 29 -25 0 6 -13 26 -29 45
-16 19 -29 31 -29 25z" />
    <path d="M180 142 c0 -12 50 -46 56 -39 3 3 -9 15 -25 27 -17 12 -31 17 -31
12z" />
    <path d="M270 90 c0 -9 69 -34 76 -28 2 3 -14 12 -36 21 -22 8 -40 12 -40 7z" />
    <path d="M570 60 c0 -5 7 -7 15 -4 8 4 15 8 15 10 0 2 -7 4 -15 4 -8 0 -15 -4
-15 -10z" />
  </g>
  <g transform="translate(0.000000,104.000000) scale(0.100000,-0.100000)" fill="#7c8493" stroke="none">
    <path d="M405 989 l-6 -9 61 0 c34 0 59 4 56 8 -7 12 -104 13 -111 1z" />
    <path d="M313 969 c-29 -11 -53 -24 -53 -29 0 -4 18 0 40 11 21 10 46 19 54
19 8 0 18 5 21 10 9 14 -2 12 -62 -11z" />
    <path d="M544 982 c4 -7 16 -12 26 -12 10 0 20 -4 22 -10 2 -5 18 -12 36 -16
l32 -6 0 11 c0 6 -8 11 -18 11 -10 0 -22 3 -26 7 -3 4 -12 8 -19 9 -7 2 -23 6
-36 10 l-24 7 7 -11z" />
    <path d="M553 953 c4 -3 10 -3 14 0 3 4 0 7 -7 7 -7 0 -10 -3 -7 -7z" />
    <path d="M205 920 l-6 -10 15 6 c18 7 21 14 7 14 -6 0 -13 -4 -16 -10z" />
    <path d="M175 900 c-3 -5 -1 -10 4 -10 6 0 11 5 11 10 0 6 -2 10 -4 10 -3 0
-8 -4 -11 -10z" />
    <path d="M302 854 c-26 -25 -38 -41 -27 -36 23 12 93 82 81 82 -4 0 -28 -21
-54 -46z" />
    <path d="M139 853 l-14 -18 18 14 c9 7 17 15 17 17 0 8 -8 3 -21 -13z" />
    <path d="M493 863 c4 -3 10 -3 14 0 3 4 0 7 -7 7 -7 0 -10 -3 -7 -7z" />
    <path d="M523 863 c4 -3 10 -3 14 0 3 4 0 7 -7 7 -7 0 -10 -3 -7 -7z" />
    <path d="M613 863 c4 -3 10 -3 14 0 3 4 0 7 -7 7 -7 0 -10 -3 -7 -7z" />
    <path d="M700 842 c0 -5 7 -9 15 -9 8 0 12 4 9 9 -3 4 -9 8 -15 8 -5 0 -9 -4
-9 -8z" />
    <path d="M790 793 c0 -12 38 -48 45 -41 3 2 -6 15 -20 28 -14 13 -25 19 -25
13z" />
    <path d="M60 750 l-15 -10 12 0 c6 0 15 5 18 10 8 12 4 12 -15 0z" />
    <path d="M214 748 l-7 -11 11 7 c12 7 16 16 8 16 -3 0 -8 -5 -12 -12z" />
    <path d="M850 715 c7 -9 15 -13 17 -11 7 7 -7 26 -19 26 l-10 0 12 -15z" />
    <path d="M43 713 c4 -3 10 -3 14 0 3 4 0 7 -7 7 -7 0 -10 -3 -7 -7z" />
    <path d="M893 635 c0 -8 4 -15 9 -15 4 0 8 4 8 9 0 6 -4 12 -8 15 -5 3 -9 -1
-9 -9z" />
    <path d="M10 630 c0 -5 5 -10 10 -10 6 0 10 5 10 10 0 6 -4 10 -10 10 -5 0
-10 -4 -10 -10z" />
    <path d="M900 590 l0 -24 12 12 12 12 -12 12 -12 12 0 -24z" />
    <path d="M10 580 c0 -7 3 -10 7 -7 3 4 3 10 0 14 -4 3 -7 0 -7 -7z" />
    <path d="M0 508 c0 -24 5 -50 10 -58 l10 -15 -3 57 c-2 67 -17 79 -17 16z" />
    <path d="M912 515 l0 -30 5 18 c2 9 2 23 0 30 -3 6 -5 -1 -5 -18z" />
    <path d="M900 440 c0 -11 5 -20 10 -20 6 0 10 9 10 20 0 11 -4 20 -10 20 -5 0
-10 -9 -10 -20z" />
    <path d="M10 410 c0 -5 5 -10 10 -10 6 0 10 5 10 10 0 6 -4 10 -10 10 -5 0
-10 -4 -10 -10z" />
    <path d="M24 364 c3 -9 6 -18 6 -20 0 -2 4 -4 9 -4 5 0 7 9 4 20 -3 11 -10 20
-15 20 -6 0 -7 -7 -4 -16z" />
    <path d="M40 325 c0 -13 32 -66 36 -62 6 6 -23 67 -31 67 -3 0 -5 -2 -5 -5z" />
    <path d="M810 225 l-12 -15 10 0 c5 0 12 7 16 15 3 8 4 15 2 15 -2 0 -9 -7
-16 -15z" />
    <path d="M95 220 c3 -5 8 -10 11 -10 2 0 4 5 4 10 0 6 -5 10 -11 10 -5 0 -7
-4 -4 -10z" />
    <path d="M120 200 c0 -5 5 -10 11 -10 5 0 7 5 4 10 -3 6 -8 10 -11 10 -2 0 -4
-4 -4 -10z" />
    <path d="M170 151 c0 -5 7 -15 17 -22 l16 -14 -12 23 c-12 23 -21 28 -21 13z" />
    <path d="M715 139 c-4 -6 -5 -12 -2 -15 2 -3 7 2 10 11 7 17 1 20 -8 4z" />
    <path d="M234 101 c8 -12 46 -21 46 -11 0 8 -24 20 -41 20 -6 0 -8 -4 -5 -9z" />
    <path d="M604 75 c-10 -8 -14 -14 -9 -15 15 0 40 18 34 24 -3 3 -14 -1 -25 -9z" />
    <path d="M345 60 c3 -5 18 -10 32 -10 32 0 28 5 -10 14 l-29 7 7 -11z" />
    <path d="M540 60 l-25 -8 33 -1 c17 -1 32 4 32 9 0 11 -5 11 -40 0z" />
  </g>
  <g transform="translate(0.000000,104.000000) scale(0.100000,-0.100000)" fill="#b0b6c0" stroke="none">
    <path d="M410 988 c0 -5 23 -8 50 -8 28 0 50 3 50 8 0 4 -22 7 -50 7 -27 0
-50 -3 -50 -7z" />
    <path d="M360 980 c0 -7 3 -10 7 -7 3 4 3 10 0 14 -4 3 -7 0 -7 -7z" />
    <path d="M544 982 c4 -3 14 -7 22 -8 9 -1 13 0 10 4 -4 3 -14 7 -22 8 -9 1
-13 0 -10 -4z" />
    <path d="M300 960 c0 -7 3 -10 7 -7 3 4 3 10 0 14 -4 3 -7 0 -7 -7z" />
    <path d="M617 964 c-11 -11 3 -24 18 -18 8 4 12 10 9 15 -6 11 -18 12 -27 3z" />
    <path d="M533 953 c4 -3 10 -3 14 0 3 4 0 7 -7 7 -7 0 -10 -3 -7 -7z" />
    <path d="M468 943 c7 -3 16 -2 19 1 4 3 -2 6 -13 5 l-19 -1 13 -5z" />
    <path d="M433 933 c4 -3 10 -3 14 0 3 4 0 7 -7 7 -7 0 -10 -3 -7 -7z" />
    <path d="M366 905 c-11 -8 -16 -15 -10 -15 5 0 18 7 28 15 11 8 16 15 10 15
-5 0 -18 -7 -28 -15z" />
    <path d="M324 878 l-7 -11 11 7 c12 7 16 16 8 16 -3 0 -8 -5 -12 -12z" />
    <path d="M483 863 c4 -3 10 -3 14 0 3 4 0 7 -7 7 -7 0 -10 -3 -7 -7z" />
    <path d="M700 840 c0 -7 3 -10 7 -7 3 4 3 10 0 14 -4 3 -7 0 -7 -7z" />
    <path d="M755 810 c3 -5 10 -10 16 -10 5 0 9 5 9 10 0 6 -7 10 -16 10 l-15 0
6 -10z" />
    <path d="M72 783 l-12 -22 12 -7 11 -7 -7 11 c-3 5 -1 12 5 14 7 2 10 11 7 18
l-5 15 -11 -22z" />
    <path d="M235 780 l-6 -10 15 6 c18 7 21 14 7 14 -6 0 -13 -4 -16 -10z" />
    <path d="M840 730 c0 -5 4 -10 8 -10 4 0 13 -14 20 -32 6 -17 15 -28 19 -24 8
8 -26 76 -39 76 -4 0 -8 -4 -8 -10z" />
    <path d="M33 693 c4 -3 10 -3 14 0 3 4 0 7 -7 7 -7 0 -10 -3 -7 -7z" />
    <path d="M10 630 c0 -5 5 -10 11 -10 5 0 7 5 4 10 -3 6 -8 10 -11 10 -2 0 -4
-4 -4 -10z" />
    <path d="M903 589 c-2 -23 3 -25 10 -4 4 8 3 16 -1 19 -4 3 -9 -4 -9 -15z" />
    <path d="M0 556 c0 -8 5 -18 10 -21 l10 -6 0 20 c0 12 -4 21 -10 21 -5 0 -10
-6 -10 -14z" />
    <path d="M7 486 c-4 -10 -5 -21 -2 -24 9 -9 17 6 13 25 l-4 18 -7 -19z" />
    <path d="M903 435 c0 -14 3 -22 8 -19 5 3 9 11 9 19 0 8 -4 16 -9 19 -5 3 -8
-5 -8 -19z" />
    <path d="M15 410 c-3 -5 -1 -10 4 -10 6 0 11 5 11 10 0 6 -2 10 -4 10 -3 0 -8
-4 -11 -10z" />
    <path d="M26 371 c-3 -5 2 -15 12 -22 l17 -14 -12 16 c-7 9 -10 19 -6 22 3 4
4 7 0 7 -3 0 -8 -4 -11 -9z" />
    <path d="M885 371 c-3 -5 -2 -12 3 -15 5 -3 9 1 9 9 0 17 -3 19 -12 6z" />
    <path d="M865 310 c3 -5 8 -10 11 -10 3 0 2 5 -1 10 -3 6 -8 10 -11 10 -3 0
-2 -4 1 -10z" />
    <path d="M840 270 c0 -7 3 -10 7 -7 3 4 3 10 0 14 -4 3 -7 0 -7 -7z" />
    <path d="M90 236 c0 -9 5 -16 10 -16 6 0 10 4 10 9 0 6 -4 13 -10 16 l-10 6 0
-15z" />
    <path d="M795 210 c-3 -5 -2 -10 4 -10 5 0 13 5 16 10 3 6 2 10 -4 10 -5 0
-13 -4 -16 -10z" />
    <path d="M130 193 c0 -12 38 -48 45 -41 3 2 -6 15 -20 28 -14 13 -25 19 -25
13z" />
    <path d="M776 175 c-11 -8 -17 -17 -14 -20 2 -3 13 4 23 15 21 23 18 25 -9 5z" />
    <path d="M645 90 c3 -5 8 -10 11 -10 3 0 2 5 -1 10 -3 6 -8 10 -11 10 -3 0 -2
-4 1 -10z" />
    <path d="M609 73 l-14 -18 18 14 c16 13 21 21 13 21 -2 0 -10 -8 -17 -17z" />
    <path d="M320 70 c0 -7 3 -10 7 -7 3 4 3 10 0 14 -4 3 -7 0 -7 -7z" />
    <path d="M350 60 c0 -5 5 -10 11 -10 5 0 7 5 4 10 -3 6 -8 10 -11 10 -2 0 -4
-4 -4 -10z" />
    <path d="M560 60 c0 -5 5 -10 11 -10 5 0 7 5 4 10 -3 6 -8 10 -11 10 -2 0 -4
-4 -4 -10z" />
    <path d="M400 50 c20 -13 33 -13 25 0 -3 6 -14 10 -23 10 l-17 0 15 -10z" />
    <path d="M500 50 l-15 -10 17 0 c9 0 20 5 23 10 8 13 -5 13 -25 0z" />
  </g>
  <g transform="translate(0.000000,104.000000) scale(0.100000,-0.100000)" fill="#9ca3ae" stroke="none">
    <path d="M415 990 l-6 -10 16 0 16 0 -6 10 c-3 6 -8 10 -10 10 -2 0 -7 -4 -10
-10z" />
    <path d="M485 990 l-6 -10 16 0 16 0 -6 10 c-3 6 -8 10 -10 10 -2 0 -7 -4 -10
-10z" />
    <path d="M324 968 l-7 -11 11 7 c12 7 16 16 8 16 -3 0 -8 -5 -12 -12z" />
    <path d="M600 970 c0 -5 5 -10 11 -10 5 0 7 5 4 10 -3 6 -8 10 -11 10 -2 0 -4
-4 -4 -10z" />
    <path d="M543 953 c4 -3 10 -3 14 0 3 4 0 7 -7 7 -7 0 -10 -3 -7 -7z" />
    <path d="M223 923 c4 -3 10 -3 14 0 3 4 0 7 -7 7 -7 0 -10 -3 -7 -7z" />
    <path d="M190 910 c-8 -5 -12 -11 -9 -14 2 -3 11 -1 19 4 8 5 12 11 9 14 -2 3
-11 1 -19 -4z" />
    <path d="M314 868 l-7 -11 11 7 c12 7 16 16 8 16 -3 0 -8 -5 -12 -12z" />
    <path d="M655 860 c-4 -6 -3 -10 2 -9 4 1 10 0 13 -1 16 -6 41 -7 35 -2 -4 4
-10 7 -13 7 -4 0 -12 4 -19 8 l-12 7 -6 -10z" />
    <path d="M100 821 l-11 -21 10 0 c10 0 24 30 17 37 -2 3 -9 -5 -16 -16z" />
    <path d="M725 830 c3 -5 11 -10 16 -10 6 0 7 5 4 10 -3 6 -11 10 -16 10 -6 0
-7 -4 -4 -10z" />
    <path d="M75 780 c-3 -5 -1 -10 4 -10 6 0 11 5 11 10 0 6 -2 10 -4 10 -3 0 -8
-4 -11 -10z" />
    <path d="M876 680 c3 -14 10 -29 15 -34 l9 -10 0 15 c0 8 -7 24 -16 35 l-15
19 7 -25z" />
    <path d="M23 663 c4 -3 10 -3 14 0 3 4 0 7 -7 7 -7 0 -10 -3 -7 -7z" />
    <path d="M895 620 c3 -5 8 -10 11 -10 2 0 4 5 4 10 0 6 -5 10 -11 10 -5 0 -7
-4 -4 -10z" />
    <path d="M7 573 c-4 -3 -7 -11 -7 -17 l0 -10 12 12 c6 6 9 14 7 17 -3 3 -9 2
-12 -2z" />
    <path d="M5 470 c3 -5 8 -10 11 -10 2 0 4 5 4 10 0 6 -5 10 -11 10 -5 0 -7 -4
-4 -10z" />
    <path d="M903 435 c0 -8 4 -12 9 -9 4 3 8 9 8 15 0 5 -4 9 -8 9 -5 0 -9 -7 -9
-15z" />
    <path d="M13 403 c4 -3 10 -3 14 0 3 4 0 7 -7 7 -7 0 -10 -3 -7 -7z" />
    <path d="M897 403 c-4 -3 -7 -13 -7 -21 0 -18 13 -7 16 13 2 17 1 18 -9 8z" />
    <path d="M879 343 l-14 -18 18 14 c16 13 21 21 13 21 -2 0 -10 -8 -17 -17z" />
    <path d="M825 240 c-3 -5 -1 -10 4 -10 6 0 11 5 11 10 0 6 -2 10 -4 10 -3 0
-8 -4 -11 -10z" />
    <path d="M125 190 c3 -5 8 -10 11 -10 2 0 4 5 4 10 0 6 -5 10 -11 10 -5 0 -7
-4 -4 -10z" />
    <path d="M165 150 c3 -5 8 -10 11 -10 2 0 4 5 4 10 0 6 -5 10 -11 10 -5 0 -7
-4 -4 -10z" />
    <path d="M190 126 c0 -2 7 -6 15 -10 8 -3 15 -1 15 4 0 6 -7 10 -15 10 -8 0
-15 -2 -15 -4z" />
    <path d="M263 93 c4 -3 10 -3 14 0 3 4 0 7 -7 7 -7 0 -10 -3 -7 -7z" />
    <path d="M290 80 c0 -7 3 -10 7 -7 3 4 3 10 0 14 -4 3 -7 0 -7 -7z" />
    <path d="M438 43 c12 -2 32 -2 45 0 12 2 2 4 -23 4 -25 0 -35 -2 -22 -4z" />
  </g>
  <g transform="translate(0.000000,104.000000) scale(0.100000,-0.100000)" fill="#4a5569" stroke="none">
    <path d="M573 973 c4 -3 10 -3 14 0 3 4 0 7 -7 7 -7 0 -10 -3 -7 -7z" />
    <path d="M600 965 c0 -9 44 -23 54 -17 5 3 1 9 -10 13 -23 9 -44 11 -44 4z" />
    <path d="M189 903 l-14 -18 18 14 c16 13 21 21 13 21 -2 0 -10 -8 -17 -17z" />
    <path d="M645 860 c3 -5 8 -10 11 -10 3 0 2 5 -1 10 -3 6 -8 10 -11 10 -3 0
-2 -4 1 -10z" />
    <path d="M675 850 c3 -5 8 -10 11 -10 3 0 2 5 -1 10 -3 6 -8 10 -11 10 -3 0
-2 -4 1 -10z" />
    <path d="M100 818 c-29 -44 -32 -53 -6 -23 22 26 32 45 23 45 -1 0 -9 -10 -17
-22z" />
    <path d="M726 830 c6 -6 27 -19 48 -30 l38 -19 -17 19 c-9 10 -31 24 -48 30
l-32 11 11 -11z" />
    <path d="M825 760 c3 -5 8 -10 11 -10 3 0 2 5 -1 10 -3 6 -8 10 -11 10 -3 0
-2 -4 1 -10z" />
    <path d="M867 695 c13 -25 27 -45 29 -45 2 0 -6 20 -18 45 -12 25 -25 45 -29
45 -4 0 4 -20 18 -45z" />
    <path d="M900 610 c0 -7 3 -10 7 -7 3 4 3 10 0 14 -4 3 -7 0 -7 -7z" />
    <path d="M901 414 l1 -19 5 13 c3 7 2 16 -1 19 -3 4 -6 -2 -5 -13z" />
    <path d="M890 380 c0 -7 3 -10 7 -7 3 4 3 10 0 14 -4 3 -7 0 -7 -7z" />
    <path d="M40 329 c0 -3 9 -23 20 -45 l21 -39 -7 25 c-6 23 -34 71 -34 59z" />
    <path d="M830 250 c-6 -11 -8 -20 -6 -20 3 0 10 9 16 20 6 11 8 20 6 20 -3 0
-10 -9 -16 -20z" />
    <path d="M95 230 c3 -5 8 -10 11 -10 3 0 2 5 -1 10 -3 6 -8 10 -11 10 -3 0 -2
-4 1 -10z" />
    <path d="M804 208 l-7 -11 11 7 c7 4 12 9 12 12 0 8 -9 4 -16 -8z" />
    <path d="M120 197 c0 -2 15 -16 33 -33 l32 -29 -29 33 c-28 30 -36 37 -36 29z" />
    <path d="M208 119 c7 -9 24 -19 37 -21 l24 -5 -5 8 c-3 5 -13 9 -23 9 -9 0
-23 6 -31 13 l-14 12 12 -16z" />
  </g>
  <g transform="translate(0.000000,104.000000) scale(0.100000,-0.100000)" fill="#8a90ac" stroke="none">
    <path d="M643 953 c4 -3 10 -3 14 0 3 4 0 7 -7 7 -7 0 -10 -3 -7 -7z" />
    <path d="M553 863 c15 -2 37 -2 50 0 12 2 0 4 -28 4 -27 0 -38 -2 -22 -4z" />
    <path d="M250 810 l-15 -10 12 0 c6 0 15 5 18 10 8 12 4 12 -15 0z" />
    <path d="M748 813 c6 -2 18 -2 25 0 6 3 1 5 -13 5 -14 0 -19 -2 -12 -5z" />
    <path d="M800 780 c0 -5 5 -10 11 -10 5 0 7 5 4 10 -3 6 -8 10 -11 10 -2 0 -4
-4 -4 -10z" />
    <path d="M850 730 c0 -7 3 -10 7 -7 3 4 3 10 0 14 -4 3 -7 0 -7 -7z" />
    <path d="M0 550 c0 -7 3 -10 7 -7 3 4 3 10 0 14 -4 3 -7 0 -7 -7z" />
    <path d="M90 240 c0 -7 3 -10 7 -7 3 4 3 10 0 14 -4 3 -7 0 -7 -7z" />
    <path d="M680 110 c0 -7 3 -10 7 -7 3 4 3 10 0 14 -4 3 -7 0 -7 -7z" />
    <path d="M243 103 c4 -3 10 -3 14 0 3 4 0 7 -7 7 -7 0 -10 -3 -7 -7z" />
  </g>
  <g transform="translate(0.000000,104.000000) scale(0.100000,-0.100000)" fill="#333f5b" stroke="none">
    <path d="M618 958 c5 -5 16 -8 23 -6 l13 4 -23 7 -24 6 11 -11z" />
    <path d="M800 786 c0 -2 8 -10 18 -17 l17 -14 -14 18 c-13 16 -21 21 -21 13z" />
    <path d="M890 650 c0 -7 3 -10 7 -7 3 4 3 10 0 14 -4 3 -7 0 -7 -7z" />
    <path d="M900 620 c0 -7 3 -10 7 -7 3 4 3 10 0 14 -4 3 -7 0 -7 -7z" />
  </g>
</svg>